{
  "version": "1.1.6",
  "modules": [
    {
      "id": 1,
      "plugin": "Core",
      "version": "1.1.6",
      "model": "AudioInterface",
      "params": [],
      "data": {
        "audio": {
          "driver": 6,
          "deviceName": "扬声器 (Razer Surround Audio Controller)",
          "offset": 0,
          "maxChannels": 8,
          "sampleRate": 96000,
          "blockSize": 1024
        }
      },
      "pos": [
        100,
        0
      ]
    },
    {
      "id": 30,
      "plugin": "Fundamental",
      "version": "1.4.0",
      "model": "Scope",
      "params": [
        {
          "id": 0,
          "value": 0.0
        },
        {
          "id": 1,
          "value": 3.48219299
        },
        {
          "id": 2,
          "value": 2.0
        },
        {
          "id": 3,
          "value": -0.473535538
        },
        {
          "id": 4,
          "value": 13.1629677
        },
        {
          "id": 5,
          "value": 0.0
        },
        {
          "id": 6,
          "value": -9.85886574
        },
        {
          "id": 7,
          "value": 0.0
        }
      ],
      "data": {
        "lissajous": 0,
        "external": 0
      },
      "pos": [
        117,
        1
      ]
    },
    {
      "id": 67,
      "plugin": "VCV-Recorder",
      "version": "1.0.1",
      "model": "Recorder",
      "params": [
        {
          "id": 0,
          "value": 1.0
        },
        {
          "id": 1,
          "value": 0.0
        }
      ],
      "data": {
        "format": "wav",
        "path": "D:\\Documents\\GitHub\\gitshow12/recording.wav",
        "incrementPath": false,
        "sampleRate": 44100,
        "depth": 16,
        "bitRate": 320000
      },
      "pos": [
        114,
        2
      ]
    },
    {
      "id": 76,
      "plugin": "ImpromptuModular",
      "version": "1.1.3",
      "model": "Clocked",
      "params": [
        {
          "id": 0,
          "value": 121.0
        },
        {
          "id": 1,
          "value": 2.0
        },
        {
          "id": 2,
          "value": 2.0
        },
        {
          "id": 3,
          "value": 0.0
        },
        {
          "id": 4,
          "value": 0.00657987921
        },
        {
          "id": 5,
          "value": 0.0374622345
        },
        {
          "id": 6,
          "value": 0.0336797312
        },
        {
          "id": 7,
          "value": 0.0399997421
        },
        {
          "id": 8,
          "value": 0.505000055
        },
        {
          "id": 9,
          "value": 0.499064088
        },
        {
          "id": 10,
          "value": 0.518768787
        },
        {
          "id": 11,
          "value": 0.497786671
        },
        {
          "id": 12,
          "value": 0.0
        },
        {
          "id": 13,
          "value": 0.0
        },
        {
          "id": 14,
          "value": 0.0
        },
        {
          "id": 15,
          "value": 0.0
        },
        {
          "id": 16,
          "value": 0.0
        },
        {
          "id": 17,
          "value": 0.0
        },
        {
          "id": 18,
          "value": 0.0
        },
        {
          "id": 19,
          "value": 0.0
        }
      ],
      "rightModuleId": 95,
      "data": {
        "panelTheme": 0,
        "running": true,
        "displayDelayNoteMode": true,
        "bpmDetectionMode": false,
        "restartOnStopStartRun": 0,
        "sendResetOnRestart": false,
        "ppqn": 4,
        "resetClockOutputsHigh": true,
        "momentaryRunInput": true
      },
      "pos": [
        0,
        0
      ]
    },
    {
      "id": 77,
      "plugin": "ImpromptuModular",
      "version": "1.1.3",
      "model": "Clocked",
      "params": [
        {
          "id": 0,
          "value": 125.0
        },
        {
          "id": 1,
          "value": 0.0
        },
        {
          "id": 2,
          "value": 0.0
        },
        {
          "id": 3,
          "value": 0.0
        },
        {
          "id": 4,
          "value": -0.0479999371
        },
        {
          "id": 5,
          "value": 0.0
        },
        {
          "id": 6,
          "value": 0.0
        },
        {
          "id": 7,
          "value": 0.0
        },
        {
          "id": 8,
          "value": 0.490999848
        },
        {
          "id": 9,
          "value": 0.5
        },
        {
          "id": 10,
          "value": 0.5
        },
        {
          "id": 11,
          "value": 0.5
        },
        {
          "id": 12,
          "value": 0.0
        },
        {
          "id": 13,
          "value": 0.0
        },
        {
          "id": 14,
          "value": 0.0
        },
        {
          "id": 15,
          "value": 0.0
        },
        {
          "id": 16,
          "value": 0.0
        },
        {
          "id": 17,
          "value": 0.0
        },
        {
          "id": 18,
          "value": 0.0
        },
        {
          "id": 19,
          "value": 0.0
        }
      ],
      "rightModuleId": 85,
      "data": {
        "panelTheme": 0,
        "running": true,
        "displayDelayNoteMode": true,
        "bpmDetectionMode": false,
        "restartOnStopStartRun": 0,
        "sendResetOnRestart": false,
        "ppqn": 4,
        "resetClockOutputsHigh": true,
        "momentaryRunInput": true
      },
      "pos": [
        0,
        1
      ]
    },
    {
      "id": 78,
      "plugin": "Fundamental",
      "version": "1.4.0",
      "model": "Delay",
      "params": [
        {
          "id": 0,
          "value": 0.794999778
        },
        {
          "id": 1,
          "value": 0.0
        },
        {
          "id": 2,
          "value": 0.287999988
        },
        {
          "id": 3,
          "value": 0.211000174
        }
      ],
      "leftModuleId": 80,
      "rightModuleId": 79,
      "pos": [
        66,
        0
      ]
    },
    {
      "id": 79,
      "plugin": "Fundamental",
      "version": "1.4.0",
      "model": "Delay",
      "params": [
        {
          "id": 0,
          "value": 0.190499961
        },
        {
          "id": 1,
          "value": 0.0
        },
        {
          "id": 2,
          "value": 0.129000008
        },
        {
          "id": 3,
          "value": 0.792000175
        }
      ],
      "leftModuleId": 78,
      "rightModuleId": 98,
      "pos": [
        74,
        0
      ]
    },
    {
      "id": 80,
      "plugin": "Valley",
      "version": "1.0.1",
      "model": "Plateau",
      "params": [
        {
          "id": 0,
          "value": 1.0
        },
        {
          "id": 1,
          "value": 0.5
        },
        {
          "id": 2,
          "value": 0.0
        },
        {
          "id": 3,
          "value": 10.0
        },
        {
          "id": 4,
          "value": 10.0
        },
        {
          "id": 5,
          "value": 0.5
        },
        {
          "id": 6,
          "value": 10.0
        },
        {
          "id": 7,
          "value": 0.549950004
        },
        {
          "id": 8,
          "value": 10.0
        },
        {
          "id": 9,
          "value": 10.0
        },
        {
          "id": 10,
          "value": 0.0
        },
        {
          "id": 11,
          "value": 0.5
        },
        {
          "id": 12,
          "value": 0.5
        },
        {
          "id": 13,
          "value": 0.0
        },
        {
          "id": 14,
          "value": 0.0
        },
        {
          "id": 15,
          "value": 0.0
        },
        {
          "id": 16,
          "value": 0.0
        },
        {
          "id": 17,
          "value": 1.0
        },
        {
          "id": 18,
          "value": 1.0
        },
        {
          "id": 19,
          "value": 1.0
        },
        {
          "id": 20,
          "value": 1.0
        },
        {
          "id": 21,
          "value": 1.0
        },
        {
          "id": 22,
          "value": 1.0
        },
        {
          "id": 23,
          "value": 1.0
        },
        {
          "id": 24,
          "value": 1.0
        },
        {
          "id": 25,
          "value": 1.0
        },
        {
          "id": 26,
          "value": 1.0
        },
        {
          "id": 27,
          "value": 1.0
        },
        {
          "id": 28,
          "value": 1.0
        },
        {
          "id": 29,
          "value": 0.0
        },
        {
          "id": 30,
          "value": 1.0
        }
      ],
      "leftModuleId": 95,
      "rightModuleId": 78,
      "data": {
        "frozen": false,
        "freezeToggle": false,
        "panelStyle": 0,
        "tuned": 0,
        "diffuseInput": 1,
        "preDelayCVSens": 0,
        "inputSensitivity": 0,
        "outputSaturation": 0
      },
      "pos": [
        54,
        0
      ]
    },
    {
      "id": 82,
      "plugin": "Befaco",
      "version": "1.0.0",
      "model": "EvenVCO",
      "params": [
        {
          "id": 0,
          "value": -2.0
        },
        {
          "id": 1,
          "value": 0.0
        },
        {
          "id": 2,
          "value": 0.0
        }
      ],
      "leftModuleId": 92,
      "rightModuleId": 84,
      "pos": [
        48,
        1
      ]
    },
    {
      "id": 83,
      "plugin": "VultModulesFree",
      "version": "1.6.0",
      "model": "Slap",
      "params": [
        {
          "id": 0,
          "value": 0.0
        },
        {
          "id": 1,
          "value": 0.479000211
        },
        {
          "id": 2,
          "value": 0.509000003
        },
        {
          "id": 3,
          "value": 0.470000088
        },
        {
          "id": 4,
          "value": 0.0
        },
        {
          "id": 5,
          "value": 0.0
        },
        {
          "id": 6,
          "value": 0.0
        },
        {
          "id": 7,
          "value": 0.0
        },
        {
          "id": 8,
          "value": 0.0
        }
      ],
      "leftModuleId": 84,
      "pos": [
        66,
        1
      ]
    },
    {
      "id": 84,
      "plugin": "VultModulesFree",
      "version": "1.6.0",
      "model": "Lateralus",
      "params": [
        {
          "id": 0,
          "value": 0.502000391
        },
        {
          "id": 1,
          "value": 0.0
        },
        {
          "id": 2,
          "value": 0.433000088
        },
        {
          "id": 3,
          "value": 0.0
        },
        {
          "id": 4,
          "value": 0.389999956
        },
        {
          "id": 5,
          "value": 0.0
        },
        {
          "id": 6,
          "value": 0.0
        }
      ],
      "leftModuleId": 82,
      "rightModuleId": 83,
      "pos": [
        56,
        1
      ]
    },
    {
      "id": 85,
      "plugin": "StellareModular",
      "version": "1.0.0",
      "model": "TuringMachine",
      "params": [
        {
          "id": 0,
          "value": 0.5
        },
        {
          "id": 1,
          "value": 0.5
        },
        {
          "id": 2,
          "value": 0.5
        },
        {
          "id": 3,
          "value": 0.5
        },
        {
          "id": 4,
          "value": 0.5
        },
        {
          "id": 5,
          "value": 0.00699996157
        },
        {
          "id": 6,
          "value": 7.0
        },
        {
          "id": 7,
          "value": 1.0
        },
        {
          "id": 8,
          "value": 0.0
        },
        {
          "id": 9,
          "value": 0.0
        },
        {
          "id": 10,
          "value": 0.0
        },
        {
          "id": 11,
          "value": 0.0
        },
        {
          "id": 12,
          "value": 0.0
        }
      ],
      "leftModuleId": 77,
      "rightModuleId": 92,
      "data": {
        "pulses_mode": 0
      },
      "pos": [
        20,
        1
      ]
    },
    {
      "id": 92,
      "plugin": "Fundamental",
      "version": "1.4.0",
      "model": "VCO",
      "params": [
        {
          "id": 0,
          "value": 1.0
        },
        {
          "id": 1,
          "value": 0.0
        },
        {
          "id": 2,
          "value": -38.5020218
        },
        {
          "id": 3,
          "value": 0.275000036
        },
        {
          "id": 4,
          "value": 0.559500158
        },
        {
          "id": 5,
          "value": 0.677379429
        },
        {
          "id": 6,
          "value": 0.634499907
        }
      ],
      "leftModuleId": 85,
      "rightModuleId": 82,
      "pos": [
        38,
        1
      ]
    },
    {
      "id": 94,
      "plugin": "Befaco",
      "version": "1.0.0",
      "model": "SpringReverb",
      "params": [
        {
          "id": 0,
          "value": 0.249000207
        },
        {
          "id": 1,
          "value": 0.576999903
        },
        {
          "id": 2,
          "value": 0.546999812
        },
        {
          "id": 3,
          "value": 0.479500055
        }
      ],
      "pos": [
        90,
        0
      ]
    },
    {
      "id": 95,
      "plugin": "AudibleInstruments",
      "version": "1.0.0",
      "model": "Elements",
      "params": [
        {
          "id": 0,
          "value": 1.0
        },
        {
          "id": 1,
          "value": 0.0
        },
        {
          "id": 2,
          "value": 0.0
        },
        {
          "id": 3,
          "value": 0.508000016
        },
        {
          "id": 4,
          "value": 0.659998178
        },
        {
          "id": 5,
          "value": 0.00999989454
        },
        {
          "id": 6,
          "value": -0.018999828
        },
        {
          "id": 7,
          "value": 0.50850004
        },
        {
          "id": 8,
          "value": 0.495999783
        },
        {
          "id": 9,
          "value": 0.527999938
        },
        {
          "id": 10,
          "value": 0.512499571
        },
        {
          "id": 11,
          "value": 0.496500045
        },
        {
          "id": 12,
          "value": 0.503500044
        },
        {
          "id": 13,
          "value": 0.835499823
        },
        {
          "id": 14,
          "value": 0.491999984
        },
        {
          "id": 15,
          "value": 0.5
        },
        {
          "id": 16,
          "value": 0.387000203
        },
        {
          "id": 17,
          "value": 0.0
        },
        {
          "id": 18,
          "value": 0.0
        },
        {
          "id": 19,
          "value": 0.0
        },
        {
          "id": 20,
          "value": -0.0129999425
        },
        {
          "id": 21,
          "value": 0.0
        },
        {
          "id": 22,
          "value": 0.0
        },
        {
          "id": 23,
          "value": 0.0
        },
        {
          "id": 24,
          "value": 0.0
        },
        {
          "id": 25,
          "value": 0.0
        },
        {
          "id": 26,
          "value": 0.0
        },
        {
          "id": 27,
          "value": 0.0
        }
      ],
      "leftModuleId": 76,
      "rightModuleId": 80,
      "data": {
        "model": 0
      },
      "pos": [
        20,
        0
      ]
    },
    {
      "id": 97,
      "plugin": "Fundamental",
      "version": "1.4.0",
      "model": "VCMixer",
      "params": [
        {
          "id": 0,
          "value": 0.870000243
        },
        {
          "id": 1,
          "value": 0.79903084
        },
        {
          "id": 2,
          "value": 0.610940278
        },
        {
          "id": 3,
          "value": 0.427152574
        },
        {
          "id": 4,
          "value": 0.113854736
        }
      ],
      "pos": [
        101,
        1
      ]
    },
    {
      "id": 98,
      "plugin": "cf",
      "version": "1.1.1",
      "model": "PEAK",
      "params": [
        {
          "id": 0,
          "value": 4.92000008
        },
        {
          "id": 1,
          "value": 3.02499938
        }
      ],
      "leftModuleId": 79,
      "pos": [
        82,
        0
      ]
    }
  ],
  "cables": [
    {
      "id": 538,
      "outputModuleId": 76,
      "outputId": 4,
      "inputModuleId": 77,
      "inputId": 4,
      "color": "#0c8e15"
    },
    {
      "id": 539,
      "outputModuleId": 76,
      "outputId": 5,
      "inputModuleId": 77,
      "inputId": 5,
      "color": "#c91847"
    },
    {
      "id": 540,
      "outputModuleId": 76,
      "outputId": 6,
      "inputModuleId": 77,
      "inputId": 6,
      "color": "#0986ad"
    },
    {
      "id": 541,
      "outputModuleId": 77,
      "outputId": 4,
      "inputModuleId": 85,
      "inputId": 1,
      "color": "#c9b70e"
    },
    {
      "id": 542,
      "outputModuleId": 76,
      "outputId": 1,
      "inputModuleId": 85,
      "inputId": 0,
      "color": "#0c8e15"
    },
    {
      "id": 548,
      "outputModuleId": 83,
      "outputId": 1,
      "inputModuleId": 84,
      "inputId": 1,
      "color": "#0986ad"
    },
    {
      "id": 547,
      "outputModuleId": 84,
      "outputId": 1,
      "inputModuleId": 83,
      "inputId": 5,
      "color": "#c91847"
    },
    {
      "id": 545,
      "outputModuleId": 85,
      "outputId": 14,
      "inputModuleId": 92,
      "inputId": 0,
      "color": "#c9b70e"
    },
    {
      "id": 634,
      "outputModuleId": 92,
      "outputId": 0,
      "inputModuleId": 82,
      "inputId": 1,
      "color": "#c91847"
    },
    {
      "id": 543,
      "outputModuleId": 76,
      "outputId": 1,
      "inputModuleId": 83,
      "inputId": 0,
      "color": "#c91847"
    },
    {
      "id": 546,
      "outputModuleId": 82,
      "outputId": 3,
      "inputModuleId": 84,
      "inputId": 0,
      "color": "#0c8e15"
    },
    {
      "id": 636,
      "outputModuleId": 95,
      "outputId": 0,
      "inputModuleId": 80,
      "inputId": 0,
      "color": "#c9b70e"
    },
    {
      "id": 637,
      "outputModuleId": 95,
      "outputId": 1,
      "inputModuleId": 80,
      "inputId": 1,
      "color": "#0c8e15"
    },
    {
      "id": 600,
      "outputModuleId": 83,
      "outputId": 0,
      "inputModuleId": 95,
      "inputId": 0,
      "color": "#c9b70e"
    },
    {
      "id": 645,
      "outputModuleId": 79,
      "outputId": 0,
      "inputModuleId": 30,
      "inputId": 1,
      "color": "#c91847"
    },
    {
      "id": 646,
      "outputModuleId": 78,
      "outputId": 0,
      "inputModuleId": 30,
      "inputId": 0,
      "color": "#0986ad"
    },
    {
      "id": 635,
      "outputModuleId": 76,
      "outputId": 3,
      "inputModuleId": 95,
      "inputId": 2,
      "color": "#0986ad"
    },
    {
      "id": 639,
      "outputModuleId": 95,
      "outputId": 1,
      "inputModuleId": 79,
      "inputId": 4,
      "color": "#0986ad"
    },
    {
      "id": 638,
      "outputModuleId": 95,
      "outputId": 0,
      "inputModuleId": 78,
      "inputId": 4,
      "color": "#c91847"
    },
    {
      "id": 647,
      "outputModuleId": 80,
      "outputId": 0,
      "inputModuleId": 95,
      "inputId": 1,
      "color": "#c9b70e"
    },
    {
      "id": 651,
      "outputModuleId": 80,
      "outputId": 1,
      "inputModuleId": 95,
      "inputId": 3,
      "color": "#c9b70e"
    },
    {
      "id": 640,
      "outputModuleId": 78,
      "outputId": 0,
      "inputModuleId": 98,
      "inputId": 1,
      "color": "#c9b70e"
    },
    {
      "id": 641,
      "outputModuleId": 79,
      "outputId": 0,
      "inputModuleId": 98,
      "inputId": 2,
      "color": "#0c8e15"
    },
    {
      "id": 653,
      "outputModuleId": 98,
      "outputId": 1,
      "inputModuleId": 1,
      "inputId": 1,
      "color": "#c91847"
    },
    {
      "id": 652,
      "outputModuleId": 98,
      "outputId": 0,
      "inputModuleId": 1,
      "inputId": 0,
      "color": "#0c8e15"
    }
  ]
}