{
  "version": "1.1.6",
  "modules": [
    {
      "id": 1,
      "plugin": "Core",
      "version": "1.1.6",
      "model": "AudioInterface",
      "params": [],
      "leftModuleId": 87,
      "data": {
        "audio": {
          "driver": 6,
          "deviceName": "扬声器 (Razer Surround Audio Controller)",
          "offset": 0,
          "maxChannels": 8,
          "sampleRate": 96000,
          "blockSize": 1024
        }
      },
      "pos": [
        115,
        0
      ]
    },
    {
      "id": 2,
      "plugin": "Fundamental",
      "version": "1.4.0",
      "model": "VCMixer",
      "params": [
        {
          "id": 0,
          "value": 0.0
        },
        {
          "id": 1,
          "value": 1.35058713
        },
        {
          "id": 2,
          "value": 0.431120604
        },
        {
          "id": 3,
          "value": 0.427152574
        },
        {
          "id": 4,
          "value": 0.113854736
        }
      ],
      "rightModuleId": 72,
      "pos": [
        82,
        3
      ]
    },
    {
      "id": 4,
      "plugin": "Fundamental",
      "version": "1.4.0",
      "model": "VCF",
      "params": [
        {
          "id": 0,
          "value": 0.279001117
        },
        {
          "id": 1,
          "value": 0.5
        },
        {
          "id": 2,
          "value": 0.672000289
        },
        {
          "id": 3,
          "value": 0.449999988
        },
        {
          "id": 4,
          "value": 0.571000099
        }
      ],
      "pos": [
        10,
        3
      ]
    },
    {
      "id": 8,
      "plugin": "Core",
      "version": "1.1.6",
      "model": "Notes",
      "params": [],
      "text": "patch instructions:\n\n1. Choose an audio driver and device in the AUDIO-8 module.\n\n2. Drag knobs up/down. Hold Ctrl (Cmd on Mac) while dragging to fine-tune. Right-click knobs to edit, or double-click to initialize.\n\n3. Drag ports to create and move 3ables. Stack multiple cables on outputs by holding Ctrl (Cmd on Mac) and dragging from an output.\n\n4. Right-click on an empty rack space to add new modules.",
      "pos": [
        120,
        2
      ]
    },
    {
      "id": 17,
      "plugin": "VCV-Prototype",
      "version": "1.2.0",
      "model": "Prototype",
      "params": [
        {
          "id": 0,
          "value": 0.781989992
        },
        {
          "id": 1,
          "value": 0.270000011
        },
        {
          "id": 2,
          "value": 0.487226874
        },
        {
          "id": 3,
          "value": 0.519511163
        },
        {
          "id": 4,
          "value": 0.239016235
        },
        {
          "id": 5,
          "value": 0.64621228
        },
        {
          "id": 6,
          "value": 0.0
        },
        {
          "id": 7,
          "value": 0.0
        },
        {
          "id": 8,
          "value": 0.0
        },
        {
          "id": 9,
          "value": 0.0
        },
        {
          "id": 10,
          "value": 0.0
        },
        {
          "id": 11,
          "value": 0.0
        }
      ],
      "leftModuleId": 68,
      "rightModuleId": 30,
      "data": {
        "path": "/Users/lorenasalome/Documents/DigMediaYorkU/VSL/gitshow12/module.js",
        "script": "\nconfig.frameDivider = 1\n// set buffersize of module\nconfig.bufferSize = 16\n\nvar phase = 0\nvar amp = 1\nvar mix;\nvar bias_cv\n// clamp a number to within a range\nlet clampNumber = (num, a, b) => Math.max(Math.min(num, Math.max(a, b)), Math.min(a, b));\n\n// this is where the synthesis calculation occurs\nfunction process(block) {\n    // block.knobs[0] = 0.5\n\t// Knob ranges from -5 to 5 octaves\n\t// var pitch = block.knobs[0] * 10 - 5\n\t// Input follows 1V/oct standard\n    // pitch += block.inputs[0][0]\n    \n    // input 2 on the prototype module corresponds to the 2nd index of the block.inputs array, i.e. block.inputs[1]\n    amp = block.inputs[1][0]\n\n    // compare the amplitude of the two signal inputs\n    compare = [block.inputs[0][0], block.inputs[1][0]]\n    // get the max\n    max = Math.max(...compare)\n    // get the min\n    min = Math.min(...compare)\n\n    // the 1st knob on the prototype module will affect the biasing between input 1 or 2    \n    var bias = block.knobs[0] * 2 - 1\n    \n    // bias_cv += bias * Math.pow(2, block.inputs[2][0]);\n    if(bias < 0.){\n        mix = clampNumber( ((Math.abs(bias) * min) + (bias * max) * max * block.inputs[2][0]), -10., 10.)\n    } else if (bias > 0.){\n        mix = clampNumber( ((bias * max) + ((bias * -1) * min) * min * block.inputs[2][0]), -10., 10.)\n    }\n\n    var freq = 1\n\t//display(\"Freq: \" + freq.toFixed(3) + \" Hz\")\n\n\t// Set all samples in output buffer: this is where each sample is calculated, hence the for...loop. \n\tvar deltaPhase = config.frameDivider * block.sampleTime * freq\n\tfor (var i = 0; i < block.bufferSize; i++) {\n\t\t// Accumulate phase\n\t\tphase += deltaPhase\n\t\t// Wrap phase around range [0, 1]\n        phase %= 1\n        // this is like the console.log output of the prototype module. unfortunately it only displays a single concatenated string. \n        display(\"Logic Module: max, min, mix\" + mix)\n        \n\t\t// Convert phase to sine output\n        //block.outputs[0][i] = Math.sin(2 * Math.PI * phase) * 5 * amp\n        block.outputs[0][i] = max\n        block.outputs[1][i] = min\n        block.outputs[2][i] = mix\n\t}\n}\n"
      },
      "pos": [
        58,
        4
      ]
    },
    {
      "id": 27,
      "plugin": "Fundamental",
      "version": "1.4.0",
      "model": "LFO",
      "params": [
        {
          "id": 0,
          "value": 0.0
        },
        {
          "id": 1,
          "value": 0.0
        },
        {
          "id": 2,
          "value": -0.0350055471
        },
        {
          "id": 3,
          "value": 0.683999538
        },
        {
          "id": 4,
          "value": 0.422999501
        },
        {
          "id": 5,
          "value": 0.671990454
        },
        {
          "id": 6,
          "value": 0.0
        }
      ],
      "leftModuleId": 46,
      "rightModuleId": 44,
      "pos": [
        33,
        3
      ]
    },
    {
      "id": 30,
      "plugin": "Fundamental",
      "version": "1.4.0",
      "model": "Scope",
      "params": [
        {
          "id": 0,
          "value": 0.0
        },
        {
          "id": 1,
          "value": 3.48219299
        },
        {
          "id": 2,
          "value": 2.0
        },
        {
          "id": 3,
          "value": -0.473535538
        },
        {
          "id": 4,
          "value": 13.1629677
        },
        {
          "id": 5,
          "value": 0.0
        },
        {
          "id": 6,
          "value": -9.85886574
        },
        {
          "id": 7,
          "value": 0.0
        }
      ],
      "leftModuleId": 17,
      "rightModuleId": 63,
      "data": {
        "lissajous": 0,
        "external": 0
      },
      "pos": [
        73,
        4
      ]
    },
    {
      "id": 32,
      "plugin": "Befaco",
      "version": "1.0.0",
      "model": "SpringReverb",
      "params": [
        {
          "id": 0,
          "value": 0.815499902
        },
        {
          "id": 1,
          "value": 0.791113853
        },
        {
          "id": 2,
          "value": 1.0
        },
        {
          "id": 3,
          "value": 0.773588896
        }
      ],
      "leftModuleId": 71,
      "pos": [
        67,
        3
      ]
    },
    {
      "id": 43,
      "plugin": "Fundamental",
      "version": "1.4.0",
      "model": "Delay",
      "params": [
        {
          "id": 0,
          "value": 0.369854152
        },
        {
          "id": 1,
          "value": 0.118219197
        },
        {
          "id": 2,
          "value": 0.772997022
        },
        {
          "id": 3,
          "value": 0.271866679
        }
      ],
      "leftModuleId": 44,
      "rightModuleId": 71,
      "pos": [
        51,
        3
      ]
    },
    {
      "id": 44,
      "plugin": "Fundamental",
      "version": "1.4.0",
      "model": "ADSR",
      "params": [
        {
          "id": 0,
          "value": 0.0545170419
        },
        {
          "id": 1,
          "value": 0.605000019
        },
        {
          "id": 2,
          "value": 0.603499472
        },
        {
          "id": 3,
          "value": 0.689500332
        }
      ],
      "leftModuleId": 27,
      "rightModuleId": 43,
      "pos": [
        43,
        3
      ]
    },
    {
      "id": 46,
      "plugin": "Fundamental",
      "version": "1.4.0",
      "model": "VCO",
      "params": [
        {
          "id": 0,
          "value": 1.0
        },
        {
          "id": 1,
          "value": 0.0
        },
        {
          "id": 2,
          "value": -35.0460052
        },
        {
          "id": 3,
          "value": -0.122999839
        },
        {
          "id": 4,
          "value": 0.630000114
        },
        {
          "id": 5,
          "value": 0.757249534
        },
        {
          "id": 6,
          "value": 0.585000157
        }
      ],
      "rightModuleId": 27,
      "pos": [
        23,
        3
      ]
    },
    {
      "id": 50,
      "plugin": "ImpromptuModular",
      "version": "1.1.3",
      "model": "Clocked",
      "params": [
        {
          "id": 0,
          "value": 43.0
        },
        {
          "id": 1,
          "value": -13.0
        },
        {
          "id": 2,
          "value": 0.0
        },
        {
          "id": 3,
          "value": 0.0
        },
        {
          "id": 4,
          "value": 0.201000035
        },
        {
          "id": 5,
          "value": 0.0
        },
        {
          "id": 6,
          "value": 0.0
        },
        {
          "id": 7,
          "value": 0.0
        },
        {
          "id": 8,
          "value": 0.625999868
        },
        {
          "id": 9,
          "value": 0.5
        },
        {
          "id": 10,
          "value": 0.5
        },
        {
          "id": 11,
          "value": 0.5
        },
        {
          "id": 12,
          "value": 0.0
        },
        {
          "id": 13,
          "value": 0.0
        },
        {
          "id": 14,
          "value": 0.0
        },
        {
          "id": 15,
          "value": 1.0
        },
        {
          "id": 16,
          "value": 0.0
        },
        {
          "id": 17,
          "value": 0.0
        },
        {
          "id": 18,
          "value": 0.0
        },
        {
          "id": 19,
          "value": 0.0
        }
      ],
      "leftModuleId": 61,
      "rightModuleId": 53,
      "data": {
        "panelTheme": 0,
        "running": true,
        "displayDelayNoteMode": true,
        "bpmDetectionMode": false,
        "restartOnStopStartRun": 0,
        "sendResetOnRestart": false,
        "ppqn": 4,
        "resetClockOutputsHigh": true,
        "momentaryRunInput": true
      },
      "pos": [
        20,
        2
      ]
    },
    {
      "id": 51,
      "plugin": "Valley",
      "version": "1.0.1",
      "model": "Plateau",
      "params": [
        {
          "id": 0,
          "value": 0.614726424
        },
        {
          "id": 1,
          "value": 0.572849631
        },
        {
          "id": 2,
          "value": 0.147610694
        },
        {
          "id": 3,
          "value": 5.94387436
        },
        {
          "id": 4,
          "value": 5.88541031
        },
        {
          "id": 5,
          "value": 0.461436272
        },
        {
          "id": 6,
          "value": 6.13400888
        },
        {
          "id": 7,
          "value": 0.533777773
        },
        {
          "id": 8,
          "value": 2.68738747
        },
        {
          "id": 9,
          "value": 4.9036212
        },
        {
          "id": 10,
          "value": 0.993857801
        },
        {
          "id": 11,
          "value": 0.832613051
        },
        {
          "id": 12,
          "value": 6.82703972
        },
        {
          "id": 13,
          "value": 0.0
        },
        {
          "id": 14,
          "value": 0.0
        },
        {
          "id": 15,
          "value": 1.0
        },
        {
          "id": 16,
          "value": 0.0
        },
        {
          "id": 17,
          "value": 0.782840133
        },
        {
          "id": 18,
          "value": 0.286067724
        },
        {
          "id": 19,
          "value": 0.157816172
        },
        {
          "id": 20,
          "value": -0.686204433
        },
        {
          "id": 21,
          "value": 0.417400479
        },
        {
          "id": 22,
          "value": -0.884180188
        },
        {
          "id": 23,
          "value": -0.668037653
        },
        {
          "id": 24,
          "value": -0.373459578
        },
        {
          "id": 25,
          "value": -0.719455481
        },
        {
          "id": 26,
          "value": -0.387211323
        },
        {
          "id": 27,
          "value": 0.685845256
        },
        {
          "id": 28,
          "value": 0.0601581335
        },
        {
          "id": 29,
          "value": 1.0
        },
        {
          "id": 30,
          "value": 0.0
        }
      ],
      "leftModuleId": 54,
      "data": {
        "frozen": false,
        "freezeToggle": true,
        "panelStyle": 0,
        "tuned": 1,
        "diffuseInput": 0,
        "preDelayCVSens": 1,
        "inputSensitivity": 0,
        "outputSaturation": 1
      },
      "pos": [
        78,
        2
      ]
    },
    {
      "id": 53,
      "plugin": "cf",
      "version": "1.1.1",
      "model": "PLAYER",
      "params": [
        {
          "id": 0,
          "value": 0.0
        },
        {
          "id": 1,
          "value": 0.0
        },
        {
          "id": 2,
          "value": 0.0
        },
        {
          "id": 3,
          "value": 0.0
        },
        {
          "id": 4,
          "value": 0.0
        },
        {
          "id": 5,
          "value": 0.0
        },
        {
          "id": 6,
          "value": 0.0
        }
      ],
      "leftModuleId": 50,
      "rightModuleId": 57,
      "data": {
        "lastPath": "D:\\Music\\Amen Break.wav",
        "oscstate": 1
      },
      "pos": [
        40,
        2
      ]
    },
    {
      "id": 54,
      "plugin": "VultModulesFree",
      "version": "1.6.0",
      "model": "Trummor2",
      "params": [
        {
          "id": 0,
          "value": 0.0980645046
        },
        {
          "id": 1,
          "value": -0.438919604
        },
        {
          "id": 2,
          "value": 0.155259252
        },
        {
          "id": 3,
          "value": 0.0953020453
        },
        {
          "id": 4,
          "value": 0.27574873
        },
        {
          "id": 5,
          "value": -0.348168135
        },
        {
          "id": 6,
          "value": 0.0292975903
        },
        {
          "id": 7,
          "value": 0.475692332
        },
        {
          "id": 8,
          "value": 0.43056044
        },
        {
          "id": 9,
          "value": 1.0
        },
        {
          "id": 10,
          "value": 0.492441237
        },
        {
          "id": 11,
          "value": 0.312413663
        },
        {
          "id": 12,
          "value": 0.355379075
        },
        {
          "id": 13,
          "value": -0.753879666
        },
        {
          "id": 14,
          "value": -0.997600436
        },
        {
          "id": 15,
          "value": 0.491697669
        },
        {
          "id": 16,
          "value": 0.395115584
        },
        {
          "id": 17,
          "value": 1.0
        },
        {
          "id": 18,
          "value": 0.0843930244
        },
        {
          "id": 19,
          "value": 0.301379502
        },
        {
          "id": 20,
          "value": 0.927099824
        },
        {
          "id": 21,
          "value": 2.0
        },
        {
          "id": 22,
          "value": 0.254169583
        },
        {
          "id": 23,
          "value": 0.451943249
        },
        {
          "id": 24,
          "value": 0.0
        },
        {
          "id": 25,
          "value": 0.778144121
        },
        {
          "id": 26,
          "value": -0.954583645
        },
        {
          "id": 27,
          "value": 0.393607378
        },
        {
          "id": 28,
          "value": 0.471240997
        },
        {
          "id": 29,
          "value": 0.0
        },
        {
          "id": 30,
          "value": 0.0
        },
        {
          "id": 31,
          "value": 0.0
        },
        {
          "id": 32,
          "value": 0.0
        }
      ],
      "leftModuleId": 57,
      "rightModuleId": 51,
      "data": {
        "mod_a": 20,
        "mod_b": 9,
        "mod_c": 7,
        "mod_d": 11,
        "mk2": true
      },
      "pos": [
        58,
        2
      ]
    },
    {
      "id": 57,
      "plugin": "cf",
      "version": "1.1.1",
      "model": "PLAYER",
      "params": [
        {
          "id": 0,
          "value": 0.98999995
        },
        {
          "id": 1,
          "value": 0.913331985
        },
        {
          "id": 2,
          "value": 0.730409265
        },
        {
          "id": 3,
          "value": 0.725274563
        },
        {
          "id": 4,
          "value": 0.0
        },
        {
          "id": 5,
          "value": 0.0
        },
        {
          "id": 6,
          "value": 0.0
        }
      ],
      "leftModuleId": 53,
      "rightModuleId": 54,
      "data": {
        "lastPath": "D:\\Music\\Amen Break.wav",
        "oscstate": 1
      },
      "pos": [
        49,
        2
      ]
    },
    {
      "id": 58,
      "plugin": "Fundamental",
      "version": "1.4.0",
      "model": "VCMixer",
      "params": [
        {
          "id": 0,
          "value": 0.414000034
        },
        {
          "id": 1,
          "value": 1.03118396
        },
        {
          "id": 2,
          "value": 1.20651543
        },
        {
          "id": 3,
          "value": 0.502452374
        },
        {
          "id": 4,
          "value": 0.773235679
        }
      ],
      "leftModuleId": 64,
      "pos": [
        122,
        3
      ]
    },
    {
      "id": 61,
      "plugin": "ImpromptuModular",
      "version": "1.1.3",
      "model": "Clocked",
      "params": [
        {
          "id": 0,
          "value": 180.0
        },
        {
          "id": 1,
          "value": -13.0
        },
        {
          "id": 2,
          "value": 0.0
        },
        {
          "id": 3,
          "value": 0.0
        },
        {
          "id": 4,
          "value": 0.315579891
        },
        {
          "id": 5,
          "value": 0.50846231
        },
        {
          "id": 6,
          "value": 0.270679712
        },
        {
          "id": 7,
          "value": 0.767694831
        },
        {
          "id": 8,
          "value": 0.722112834
        },
        {
          "id": 9,
          "value": 0.941564381
        },
        {
          "id": 10,
          "value": 0.599768758
        },
        {
          "id": 11,
          "value": 0.884786367
        },
        {
          "id": 12,
          "value": 0.0
        },
        {
          "id": 13,
          "value": 0.0
        },
        {
          "id": 14,
          "value": 0.0
        },
        {
          "id": 15,
          "value": 5.0
        },
        {
          "id": 16,
          "value": 1.0
        },
        {
          "id": 17,
          "value": 2.0
        },
        {
          "id": 18,
          "value": 0.0
        },
        {
          "id": 19,
          "value": 0.0
        }
      ],
      "rightModuleId": 50,
      "data": {
        "panelTheme": 0,
        "running": true,
        "displayDelayNoteMode": true,
        "bpmDetectionMode": false,
        "restartOnStopStartRun": 0,
        "sendResetOnRestart": false,
        "ppqn": 4,
        "resetClockOutputsHigh": true,
        "momentaryRunInput": true
      },
      "pos": [
        0,
        2
      ]
    },
    {
      "id": 63,
      "plugin": "cf",
      "version": "1.1.1",
      "model": "PLAYER",
      "params": [
        {
          "id": 0,
          "value": 1.46999955
        },
        {
          "id": 1,
          "value": -1.0999999
        },
        {
          "id": 2,
          "value": -0.988000095
        },
        {
          "id": 3,
          "value": 0.174413458
        },
        {
          "id": 4,
          "value": 0.0
        },
        {
          "id": 5,
          "value": 0.0
        },
        {
          "id": 6,
          "value": 0.0
        }
      ],
      "leftModuleId": 30,
      "rightModuleId": 75,
      "data": {
        "lastPath": "D:\\Music\\Amen Break.wav",
        "oscstate": 1
      },
      "pos": [
        86,
        4
      ]
    },
    {
      "id": 64,
      "plugin": "Fundamental",
      "version": "1.4.0",
      "model": "VCMixer",
      "params": [
        {
          "id": 0,
          "value": 0.0
        },
        {
          "id": 1,
          "value": 0.324276596
        },
        {
          "id": 2,
          "value": 0.994326055
        },
        {
          "id": 3,
          "value": 0.984753847
        },
        {
          "id": 4,
          "value": 0.93503505
        }
      ],
      "leftModuleId": 70,
      "rightModuleId": 58,
      "pos": [
        112,
        3
      ]
    },
    {
      "id": 67,
      "plugin": "VCV-Recorder",
      "version": "1.0.1",
      "model": "Recorder",
      "params": [
        {
          "id": 0,
          "value": 1.0
        },
        {
          "id": 1,
          "value": 0.0
        }
      ],
      "data": {
        "format": "wav",
        "path": "D:\\Documents\\GitHub\\gitshow12/recording.wav",
        "incrementPath": false,
        "sampleRate": 44100,
        "depth": 16,
        "bitRate": 320000
      },
      "pos": [
        142,
        3
      ]
    },
    {
      "id": 68,
      "plugin": "AudibleInstruments",
      "version": "1.0.0",
      "model": "Clouds",
      "params": [
        {
          "id": 0,
          "value": 0.0
        },
        {
          "id": 1,
          "value": 0.0
        },
        {
          "id": 2,
          "value": 0.0
        },
        {
          "id": 3,
          "value": 0.690000296
        },
        {
          "id": 4,
          "value": 0.48999995
        },
        {
          "id": 5,
          "value": 0.238000005
        },
        {
          "id": 6,
          "value": 0.767500043
        },
        {
          "id": 7,
          "value": 0.857500076
        },
        {
          "id": 8,
          "value": 0.568500042
        },
        {
          "id": 9,
          "value": 0.848499775
        },
        {
          "id": 10,
          "value": 0.0
        },
        {
          "id": 11,
          "value": 0.0
        },
        {
          "id": 12,
          "value": 0.0
        }
      ],
      "rightModuleId": 17,
      "data": {
        "playback": 0,
        "quality": 0,
        "blendMode": 0
      },
      "pos": [
        40,
        4
      ]
    },
    {
      "id": 70,
      "plugin": "Fundamental",
      "version": "1.4.0",
      "model": "VCMixer",
      "params": [
        {
          "id": 0,
          "value": 0.381000012
        },
        {
          "id": 1,
          "value": 0.324276596
        },
        {
          "id": 2,
          "value": 0.994326055
        },
        {
          "id": 3,
          "value": 0.984753847
        },
        {
          "id": 4,
          "value": 0.93503505
        }
      ],
      "leftModuleId": 72,
      "rightModuleId": 64,
      "pos": [
        102,
        3
      ]
    },
    {
      "id": 71,
      "plugin": "Befaco",
      "version": "1.0.0",
      "model": "SpringReverb",
      "params": [
        {
          "id": 0,
          "value": 1.0
        },
        {
          "id": 1,
          "value": 1.0
        },
        {
          "id": 2,
          "value": 0.693999708
        },
        {
          "id": 3,
          "value": 0.0774999708
        }
      ],
      "leftModuleId": 43,
      "rightModuleId": 32,
      "pos": [
        59,
        3
      ]
    },
    {
      "id": 72,
      "plugin": "Fundamental",
      "version": "1.4.0",
      "model": "VCMixer",
      "params": [
        {
          "id": 0,
          "value": 0.470999986
        },
        {
          "id": 1,
          "value": 1.03118396
        },
        {
          "id": 2,
          "value": 1.20651543
        },
        {
          "id": 3,
          "value": 0.502452374
        },
        {
          "id": 4,
          "value": 0.773235679
        }
      ],
      "leftModuleId": 2,
      "rightModuleId": 70,
      "pos": [
        92,
        3
      ]
    },
    {
      "id": 75,
      "plugin": "Fundamental",
      "version": "1.4.0",
      "model": "LFO",
      "params": [
        {
          "id": 0,
          "value": 0.0
        },
        {
          "id": 1,
          "value": 1.0
        },
        {
          "id": 2,
          "value": -7.32500172
        },
        {
          "id": 3,
          "value": 0.0
        },
        {
          "id": 4,
          "value": 0.0
        },
        {
          "id": 5,
          "value": 0.5
        },
        {
          "id": 6,
          "value": 0.0
        }
      ],
      "leftModuleId": 63,
      "pos": [
        95,
        4
      ]
    },
    {
      "id": 76,
      "plugin": "ImpromptuModular",
      "version": "1.1.3",
      "model": "Clocked",
      "params": [
        {
          "id": 0,
          "value": 121.0
        },
        {
          "id": 1,
          "value": 2.0
        },
        {
          "id": 2,
          "value": 2.0
        },
        {
          "id": 3,
          "value": 0.0
        },
        {
          "id": 4,
          "value": 0.00657987921
        },
        {
          "id": 5,
          "value": 0.0374622345
        },
        {
          "id": 6,
          "value": 0.0336797312
        },
        {
          "id": 7,
          "value": 0.0399997421
        },
        {
          "id": 8,
          "value": 0.505000055
        },
        {
          "id": 9,
          "value": 0.499064088
        },
        {
          "id": 10,
          "value": 0.518768787
        },
        {
          "id": 11,
          "value": 0.497786671
        },
        {
          "id": 12,
          "value": 0.0
        },
        {
          "id": 13,
          "value": 0.0
        },
        {
          "id": 14,
          "value": 0.0
        },
        {
          "id": 15,
          "value": 0.0
        },
        {
          "id": 16,
          "value": 0.0
        },
        {
          "id": 17,
          "value": 0.0
        },
        {
          "id": 18,
          "value": 0.0
        },
        {
          "id": 19,
          "value": 0.0
        }
      ],
      "data": {
        "panelTheme": 0,
        "running": true,
        "displayDelayNoteMode": true,
        "bpmDetectionMode": false,
        "restartOnStopStartRun": 0,
        "sendResetOnRestart": false,
        "ppqn": 4,
        "resetClockOutputsHigh": true,
        "momentaryRunInput": true
      },
      "pos": [
        1,
        0
      ]
    },
    {
      "id": 77,
      "plugin": "ImpromptuModular",
      "version": "1.1.3",
      "model": "Clocked",
      "params": [
        {
          "id": 0,
          "value": 125.0
        },
        {
          "id": 1,
          "value": 0.0
        },
        {
          "id": 2,
          "value": 0.0
        },
        {
          "id": 3,
          "value": 0.0
        },
        {
          "id": 4,
          "value": -0.0479999371
        },
        {
          "id": 5,
          "value": 0.0
        },
        {
          "id": 6,
          "value": 0.0
        },
        {
          "id": 7,
          "value": 0.0
        },
        {
          "id": 8,
          "value": 0.490999848
        },
        {
          "id": 9,
          "value": 0.5
        },
        {
          "id": 10,
          "value": 0.5
        },
        {
          "id": 11,
          "value": 0.5
        },
        {
          "id": 12,
          "value": 0.0
        },
        {
          "id": 13,
          "value": 0.0
        },
        {
          "id": 14,
          "value": 0.0
        },
        {
          "id": 15,
          "value": 0.0
        },
        {
          "id": 16,
          "value": 0.0
        },
        {
          "id": 17,
          "value": 0.0
        },
        {
          "id": 18,
          "value": 0.0
        },
        {
          "id": 19,
          "value": 0.0
        }
      ],
      "rightModuleId": 85,
      "data": {
        "panelTheme": 0,
        "running": true,
        "displayDelayNoteMode": true,
        "bpmDetectionMode": false,
        "restartOnStopStartRun": 0,
        "sendResetOnRestart": false,
        "ppqn": 4,
        "resetClockOutputsHigh": true,
        "momentaryRunInput": true
      },
      "pos": [
        0,
        1
      ]
    },
    {
      "id": 78,
      "plugin": "Fundamental",
      "version": "1.4.0",
      "model": "Delay",
      "params": [
        {
          "id": 0,
          "value": 0.5
        },
        {
          "id": 1,
          "value": 0.5
        },
        {
          "id": 2,
          "value": 0.5
        },
        {
          "id": 3,
          "value": 0.5
        }
      ],
      "leftModuleId": 80,
      "rightModuleId": 79,
      "pos": [
        93,
        0
      ]
    },
    {
      "id": 79,
      "plugin": "Fundamental",
      "version": "1.4.0",
      "model": "Delay",
      "params": [
        {
          "id": 0,
          "value": 0.5
        },
        {
          "id": 1,
          "value": 0.5
        },
        {
          "id": 2,
          "value": 0.5
        },
        {
          "id": 3,
          "value": 0.5
        }
      ],
      "leftModuleId": 78,
      "rightModuleId": 87,
      "pos": [
        101,
        0
      ]
    },
    {
      "id": 80,
      "plugin": "Valley",
      "version": "1.0.1",
      "model": "Plateau",
      "params": [
        {
          "id": 0,
          "value": 1.0
        },
        {
          "id": 1,
          "value": 0.5
        },
        {
          "id": 2,
          "value": 0.0
        },
        {
          "id": 3,
          "value": 10.0
        },
        {
          "id": 4,
          "value": 10.0
        },
        {
          "id": 5,
          "value": 0.5
        },
        {
          "id": 6,
          "value": 10.0
        },
        {
          "id": 7,
          "value": 0.549950004
        },
        {
          "id": 8,
          "value": 10.0
        },
        {
          "id": 9,
          "value": 10.0
        },
        {
          "id": 10,
          "value": 0.0
        },
        {
          "id": 11,
          "value": 0.5
        },
        {
          "id": 12,
          "value": 0.5
        },
        {
          "id": 13,
          "value": 0.0
        },
        {
          "id": 14,
          "value": 0.0
        },
        {
          "id": 15,
          "value": 0.0
        },
        {
          "id": 16,
          "value": 0.0
        },
        {
          "id": 17,
          "value": 0.0
        },
        {
          "id": 18,
          "value": 0.0
        },
        {
          "id": 19,
          "value": 0.0
        },
        {
          "id": 20,
          "value": 0.0
        },
        {
          "id": 21,
          "value": 0.0
        },
        {
          "id": 22,
          "value": 0.0
        },
        {
          "id": 23,
          "value": 0.0
        },
        {
          "id": 24,
          "value": 0.0
        },
        {
          "id": 25,
          "value": 0.0
        },
        {
          "id": 26,
          "value": 0.0
        },
        {
          "id": 27,
          "value": 0.0
        },
        {
          "id": 28,
          "value": 0.0
        },
        {
          "id": 29,
          "value": 0.0
        },
        {
          "id": 30,
          "value": 1.0
        }
      ],
      "rightModuleId": 78,
      "data": {
        "frozen": false,
        "freezeToggle": false,
        "panelStyle": 0,
        "tuned": 0,
        "diffuseInput": 1,
        "preDelayCVSens": 0,
        "inputSensitivity": 0,
        "outputSaturation": 0
      },
      "pos": [
        81,
        0
      ]
    },
    {
      "id": 82,
      "plugin": "Befaco",
      "version": "1.0.0",
      "model": "EvenVCO",
      "params": [
        {
          "id": 0,
          "value": -1.0
        },
        {
          "id": 1,
          "value": 0.0
        },
        {
          "id": 2,
          "value": 0.0
        }
      ],
      "rightModuleId": 84,
      "pos": [
        62,
        1
      ]
    },
    {
      "id": 83,
      "plugin": "VultModulesFree",
      "version": "1.6.0",
      "model": "Slap",
      "params": [
        {
          "id": 0,
          "value": 0.0
        },
        {
          "id": 1,
          "value": 0.392000049
        },
        {
          "id": 2,
          "value": 0.5
        },
        {
          "id": 3,
          "value": 0.307999849
        },
        {
          "id": 4,
          "value": 0.0
        },
        {
          "id": 5,
          "value": 0.0
        },
        {
          "id": 6,
          "value": 0.0
        },
        {
          "id": 7,
          "value": 0.0
        },
        {
          "id": 8,
          "value": 0.0
        }
      ],
      "leftModuleId": 84,
      "pos": [
        80,
        1
      ]
    },
    {
      "id": 84,
      "plugin": "VultModulesFree",
      "version": "1.6.0",
      "model": "Lateralus",
      "params": [
        {
          "id": 0,
          "value": 0.332000047
        },
        {
          "id": 1,
          "value": 0.0
        },
        {
          "id": 2,
          "value": 0.0
        },
        {
          "id": 3,
          "value": 0.0
        },
        {
          "id": 4,
          "value": 0.600000024
        },
        {
          "id": 5,
          "value": 0.0
        },
        {
          "id": 6,
          "value": 0.0
        }
      ],
      "leftModuleId": 82,
      "rightModuleId": 83,
      "pos": [
        70,
        1
      ]
    },
    {
      "id": 85,
      "plugin": "StellareModular",
      "version": "1.0.0",
      "model": "TuringMachine",
      "params": [
        {
          "id": 0,
          "value": 0.5
        },
        {
          "id": 1,
          "value": 0.5
        },
        {
          "id": 2,
          "value": 0.5
        },
        {
          "id": 3,
          "value": 0.5
        },
        {
          "id": 4,
          "value": 0.5
        },
        {
          "id": 5,
          "value": 0.0
        },
        {
          "id": 6,
          "value": 7.0
        },
        {
          "id": 7,
          "value": 0.5
        },
        {
          "id": 8,
          "value": 0.0
        },
        {
          "id": 9,
          "value": 0.0
        },
        {
          "id": 10,
          "value": 0.0
        },
        {
          "id": 11,
          "value": 0.0
        },
        {
          "id": 12,
          "value": 0.0
        }
      ],
      "leftModuleId": 77,
      "data": {
        "pulses_mode": 0
      },
      "pos": [
        20,
        1
      ]
    },
    {
      "id": 87,
      "plugin": "cf",
      "version": "1.1.1",
      "model": "PEAK",
      "params": [
        {
          "id": 0,
          "value": 4.92999935
        },
        {
          "id": 1,
          "value": 4.95000172
        }
      ],
      "leftModuleId": 79,
      "rightModuleId": 1,
      "pos": [
        109,
        0
      ]
    },
    {
      "id": 88,
      "plugin": "Fundamental",
      "version": "1.4.0",
      "model": "VCF",
      "params": [
        {
          "id": 0,
          "value": 0.988000035
        },
        {
          "id": 1,
          "value": 0.5
        },
        {
          "id": 2,
          "value": 0.672000289
        },
        {
          "id": 3,
          "value": 0.449999988
        },
        {
          "id": 4,
          "value": 0.571000099
        }
      ],
      "pos": [
        63,
        0
      ]
    },
    {
      "id": 90,
      "plugin": "Fundamental",
      "version": "1.4.0",
      "model": "ADSR",
      "params": [
        {
          "id": 0,
          "value": 0.519999981
        },
        {
          "id": 1,
          "value": 0.497500032
        },
        {
          "id": 2,
          "value": 0.504999995
        },
        {
          "id": 3,
          "value": 0.512499809
        }
      ],
      "pos": [
        72,
        0
      ]
    }
  ],
  "cables": [
    {
      "id": 346,
      "outputModuleId": 2,
      "outputId": 1,
      "inputModuleId": 30,
      "inputId": 0,
      "color": "#c91847"
    },
    {
      "id": 347,
      "outputModuleId": 2,
      "outputId": 2,
      "inputModuleId": 30,
      "inputId": 1,
      "color": "#0986ad"
    },
    {
      "id": 358,
      "outputModuleId": 32,
      "outputId": 0,
      "inputModuleId": 17,
      "inputId": 0,
      "color": "#c91847"
    },
    {
      "id": 374,
      "outputModuleId": 4,
      "outputId": 1,
      "inputModuleId": 32,
      "inputId": 4,
      "color": "#c91847"
    },
    {
      "id": 359,
      "outputModuleId": 32,
      "outputId": 1,
      "inputModuleId": 17,
      "inputId": 1,
      "color": "#0986ad"
    },
    {
      "id": 397,
      "outputModuleId": 27,
      "outputId": 2,
      "inputModuleId": 4,
      "inputId": 3,
      "color": "#0c8e15"
    },
    {
      "id": 409,
      "outputModuleId": 27,
      "outputId": 1,
      "inputModuleId": 44,
      "inputId": 4,
      "color": "#c91847"
    },
    {
      "id": 403,
      "outputModuleId": 44,
      "outputId": 0,
      "inputModuleId": 43,
      "inputId": 4,
      "color": "#0c8e15"
    },
    {
      "id": 426,
      "outputModuleId": 4,
      "outputId": 0,
      "inputModuleId": 17,
      "inputId": 2,
      "color": "#c9b70e"
    },
    {
      "id": 417,
      "outputModuleId": 46,
      "outputId": 3,
      "inputModuleId": 43,
      "inputId": 0,
      "color": "#0c8e15"
    },
    {
      "id": 418,
      "outputModuleId": 46,
      "outputId": 2,
      "inputModuleId": 43,
      "inputId": 1,
      "color": "#c91847"
    },
    {
      "id": 428,
      "outputModuleId": 27,
      "outputId": 0,
      "inputModuleId": 44,
      "inputId": 3,
      "color": "#c91847"
    },
    {
      "id": 371,
      "outputModuleId": 17,
      "outputId": 1,
      "inputModuleId": 2,
      "inputId": 1,
      "color": "#0986ad"
    },
    {
      "id": 433,
      "outputModuleId": 17,
      "outputId": 0,
      "inputModuleId": 2,
      "inputId": 2,
      "color": "#0c8e15"
    },
    {
      "id": 434,
      "outputModuleId": 46,
      "outputId": 1,
      "inputModuleId": 44,
      "inputId": 1,
      "color": "#0c8e15"
    },
    {
      "id": 438,
      "outputModuleId": 46,
      "outputId": 0,
      "inputModuleId": 46,
      "inputId": 3,
      "color": "#0c8e15"
    },
    {
      "id": 439,
      "outputModuleId": 46,
      "outputId": 0,
      "inputModuleId": 44,
      "inputId": 2,
      "color": "#c91847"
    },
    {
      "id": 440,
      "outputModuleId": 46,
      "outputId": 0,
      "inputModuleId": 44,
      "inputId": 0,
      "color": "#0986ad"
    },
    {
      "id": 410,
      "outputModuleId": 43,
      "outputId": 0,
      "inputModuleId": 51,
      "inputId": 0,
      "color": "#0986ad"
    },
    {
      "id": 441,
      "outputModuleId": 44,
      "outputId": 0,
      "inputModuleId": 51,
      "inputId": 1,
      "color": "#c9b70e"
    },
    {
      "id": 443,
      "outputModuleId": 51,
      "outputId": 0,
      "inputModuleId": 32,
      "inputId": 2,
      "color": "#0986ad"
    },
    {
      "id": 444,
      "outputModuleId": 51,
      "outputId": 1,
      "inputModuleId": 32,
      "inputId": 3,
      "color": "#c9b70e"
    },
    {
      "id": 445,
      "outputModuleId": 50,
      "outputId": 1,
      "inputModuleId": 44,
      "inputId": 5,
      "color": "#c9b70e"
    },
    {
      "id": 460,
      "outputModuleId": 53,
      "outputId": 1,
      "inputModuleId": 54,
      "inputId": 8,
      "color": "#c91847"
    },
    {
      "id": 461,
      "outputModuleId": 53,
      "outputId": 0,
      "inputModuleId": 54,
      "inputId": 7,
      "color": "#0986ad"
    },
    {
      "id": 492,
      "outputModuleId": 50,
      "outputId": 5,
      "inputModuleId": 57,
      "inputId": 4,
      "color": "#c91847"
    },
    {
      "id": 494,
      "outputModuleId": 61,
      "outputId": 0,
      "inputModuleId": 54,
      "inputId": 1,
      "color": "#0c8e15"
    },
    {
      "id": 493,
      "outputModuleId": 61,
      "outputId": 1,
      "inputModuleId": 57,
      "inputId": 1,
      "color": "#c9b70e"
    },
    {
      "id": 486,
      "outputModuleId": 54,
      "outputId": 4,
      "inputModuleId": 2,
      "inputId": 3,
      "color": "#c9b70e"
    },
    {
      "id": 471,
      "outputModuleId": 54,
      "outputId": 5,
      "inputModuleId": 2,
      "inputId": 4,
      "color": "#c9b70e"
    },
    {
      "id": 507,
      "outputModuleId": 58,
      "outputId": 0,
      "inputModuleId": 67,
      "inputId": 2,
      "color": "#0c8e15"
    },
    {
      "id": 489,
      "outputModuleId": 2,
      "outputId": 0,
      "inputModuleId": 68,
      "inputId": 6,
      "color": "#0986ad"
    },
    {
      "id": 490,
      "outputModuleId": 2,
      "outputId": 0,
      "inputModuleId": 68,
      "inputId": 7,
      "color": "#c9b70e"
    },
    {
      "id": 515,
      "outputModuleId": 63,
      "outputId": 0,
      "inputModuleId": 64,
      "inputId": 4,
      "color": "#c9b70e"
    },
    {
      "id": 516,
      "outputModuleId": 63,
      "outputId": 1,
      "inputModuleId": 64,
      "inputId": 3,
      "color": "#0c8e15"
    },
    {
      "id": 508,
      "outputModuleId": 68,
      "outputId": 0,
      "inputModuleId": 70,
      "inputId": 1,
      "color": "#c9b70e"
    },
    {
      "id": 509,
      "outputModuleId": 68,
      "outputId": 1,
      "inputModuleId": 70,
      "inputId": 2,
      "color": "#c91847"
    },
    {
      "id": 501,
      "outputModuleId": 70,
      "outputId": 0,
      "inputModuleId": 58,
      "inputId": 2,
      "color": "#0c8e15"
    },
    {
      "id": 500,
      "outputModuleId": 70,
      "outputId": 0,
      "inputModuleId": 58,
      "inputId": 1,
      "color": "#c9b70e"
    },
    {
      "id": 518,
      "outputModuleId": 64,
      "outputId": 0,
      "inputModuleId": 70,
      "inputId": 3,
      "color": "#0c8e15"
    },
    {
      "id": 519,
      "outputModuleId": 64,
      "outputId": 0,
      "inputModuleId": 70,
      "inputId": 4,
      "color": "#0986ad"
    },
    {
      "id": 491,
      "outputModuleId": 50,
      "outputId": 2,
      "inputModuleId": 57,
      "inputId": 5,
      "color": "#0c8e15"
    },
    {
      "id": 510,
      "outputModuleId": 50,
      "outputId": 2,
      "inputModuleId": 68,
      "inputId": 1,
      "color": "#0986ad"
    },
    {
      "id": 521,
      "outputModuleId": 50,
      "outputId": 3,
      "inputModuleId": 63,
      "inputId": 5,
      "color": "#0c8e15"
    },
    {
      "id": 522,
      "outputModuleId": 57,
      "outputId": 0,
      "inputModuleId": 71,
      "inputId": 2,
      "color": "#0986ad"
    },
    {
      "id": 523,
      "outputModuleId": 57,
      "outputId": 1,
      "inputModuleId": 71,
      "inputId": 3,
      "color": "#c9b70e"
    },
    {
      "id": 526,
      "outputModuleId": 27,
      "outputId": 0,
      "inputModuleId": 71,
      "inputId": 0,
      "color": "#0c8e15"
    },
    {
      "id": 527,
      "outputModuleId": 27,
      "outputId": 1,
      "inputModuleId": 71,
      "inputId": 1,
      "color": "#c91847"
    },
    {
      "id": 524,
      "outputModuleId": 71,
      "outputId": 0,
      "inputModuleId": 72,
      "inputId": 1,
      "color": "#0986ad"
    },
    {
      "id": 525,
      "outputModuleId": 71,
      "outputId": 1,
      "inputModuleId": 72,
      "inputId": 2,
      "color": "#c9b70e"
    },
    {
      "id": 528,
      "outputModuleId": 72,
      "outputId": 0,
      "inputModuleId": 58,
      "inputId": 3,
      "color": "#0986ad"
    },
    {
      "id": 529,
      "outputModuleId": 72,
      "outputId": 0,
      "inputModuleId": 58,
      "inputId": 4,
      "color": "#c9b70e"
    },
    {
      "id": 535,
      "outputModuleId": 75,
      "outputId": 0,
      "inputModuleId": 64,
      "inputId": 0,
      "color": "#0c8e15"
    },
    {
      "id": 538,
      "outputModuleId": 76,
      "outputId": 4,
      "inputModuleId": 77,
      "inputId": 4,
      "color": "#0c8e15"
    },
    {
      "id": 539,
      "outputModuleId": 76,
      "outputId": 5,
      "inputModuleId": 77,
      "inputId": 5,
      "color": "#c91847"
    },
    {
      "id": 540,
      "outputModuleId": 76,
      "outputId": 6,
      "inputModuleId": 77,
      "inputId": 6,
      "color": "#0986ad"
    },
    {
      "id": 541,
      "outputModuleId": 77,
      "outputId": 4,
      "inputModuleId": 85,
      "inputId": 1,
      "color": "#c9b70e"
    },
    {
      "id": 542,
      "outputModuleId": 76,
      "outputId": 1,
      "inputModuleId": 85,
      "inputId": 0,
      "color": "#0c8e15"
    },
    {
      "id": 543,
      "outputModuleId": 76,
      "outputId": 2,
      "inputModuleId": 83,
      "inputId": 0,
      "color": "#c91847"
    },
    {
      "id": 546,
      "outputModuleId": 82,
      "outputId": 3,
      "inputModuleId": 84,
      "inputId": 0,
      "color": "#0c8e15"
    },
    {
      "id": 547,
      "outputModuleId": 84,
      "outputId": 1,
      "inputModuleId": 83,
      "inputId": 5,
      "color": "#c91847"
    },
    {
      "id": 548,
      "outputModuleId": 83,
      "outputId": 1,
      "inputModuleId": 84,
      "inputId": 1,
      "color": "#0986ad"
    },
    {
      "id": 545,
      "outputModuleId": 85,
      "outputId": 14,
      "inputModuleId": 82,
      "inputId": 1,
      "color": "#c9b70e"
    },
    {
      "id": 549,
      "outputModuleId": 83,
      "outputId": 0,
      "inputModuleId": 88,
      "inputId": 3,
      "color": "#c9b70e"
    },
    {
      "id": 550,
      "outputModuleId": 88,
      "outputId": 0,
      "inputModuleId": 90,
      "inputId": 4,
      "color": "#0c8e15"
    },
    {
      "id": 552,
      "outputModuleId": 90,
      "outputId": 0,
      "inputModuleId": 78,
      "inputId": 4,
      "color": "#0986ad"
    },
    {
      "id": 553,
      "outputModuleId": 78,
      "outputId": 0,
      "inputModuleId": 87,
      "inputId": 1,
      "color": "#c9b70e"
    },
    {
      "id": 555,
      "outputModuleId": 87,
      "outputId": 0,
      "inputModuleId": 1,
      "inputId": 0,
      "color": "#c91847"
    }
  ]
}