{
  "version": "1.1.6",
  "modules": [
    {
      "id": 1,
      "plugin": "Core",
      "version": "1.1.6",
      "model": "AudioInterface",
      "params": [],
      "leftModuleId": 2,
      "rightModuleId": 58,
      "data": {
        "audio": {
          "driver": 5,
          "deviceName": "Apple Inc.: Built-in Output",
          "offset": 0,
          "maxChannels": 8,
          "sampleRate": 96000,
          "blockSize": 1024
        }
      },
      "pos": [
        68,
        2
      ]
    },
    {
      "id": 2,
      "plugin": "Fundamental",
      "version": "1.4.0",
      "model": "VCMixer",
      "params": [
        {
          "id": 0,
          "value": 0.694442272
        },
        {
          "id": 1,
          "value": 1.35058713
        },
        {
          "id": 2,
          "value": 0.431120604
        },
        {
          "id": 3,
          "value": 0.427152574
        },
        {
          "id": 4,
          "value": 0.113854736
        }
      ],
      "rightModuleId": 1,
      "pos": [
        58,
        2
      ]
    },
    {
      "id": 4,
      "plugin": "Fundamental",
      "version": "1.4.0",
      "model": "VCF",
      "params": [
        {
          "id": 0,
          "value": 0.282662094
        },
        {
          "id": 1,
          "value": 0.5
        },
        {
          "id": 2,
          "value": 0.672000289
        },
        {
          "id": 3,
          "value": 0.449999988
        },
        {
          "id": 4,
          "value": 0.571000099
        }
      ],
      "pos": [
        18,
        3
      ]
    },
    {
      "id": 8,
      "plugin": "Core",
      "version": "1.1.6",
      "model": "Notes",
      "params": [],
      "text": "patch instructions:\n\n1. Choose an audio driver and device in the AUDIO-8 module.\n\n2. Drag knobs up/down. Hold Ctrl (Cmd on Mac) while dragging to fine-tune. Right-click knobs to edit, or double-click to initialize.\n\n3. Drag ports to create and move 3ables. Stack multiple cables on outputs by holding Ctrl (Cmd on Mac) and dragging from an output.\n\n4. Right-click on an empty rack space to add new modules.",
      "pos": [
        104,
        2
      ]
    },
    {
      "id": 17,
      "plugin": "VCV-Prototype",
      "version": "1.2.0",
      "model": "Prototype",
      "params": [
        {
          "id": 0,
          "value": 0.781989992
        },
        {
          "id": 1,
          "value": 0.737390578
        },
        {
          "id": 2,
          "value": 0.220226765
        },
        {
          "id": 3,
          "value": 0.519511163
        },
        {
          "id": 4,
          "value": 0.239016235
        },
        {
          "id": 5,
          "value": 0.64621228
        },
        {
          "id": 6,
          "value": 0.0
        },
        {
          "id": 7,
          "value": 0.0
        },
        {
          "id": 8,
          "value": 0.0
        },
        {
          "id": 9,
          "value": 0.0
        },
        {
          "id": 10,
          "value": 0.0
        },
        {
          "id": 11,
          "value": 0.0
        }
      ],
      "data": {
        "path": "/Users/lorenasalome/Documents/DigMediaYorkU/VSL/gitshow12/module.js",
        "script": "\nconfig.frameDivider = 1\n// set buffersize of module\nconfig.bufferSize = 16\n\nvar phase = 0\nvar amp = 1\nvar mix;\nvar bias_cv\n// clamp a number to within a range\nlet clampNumber = (num, a, b) => Math.max(Math.min(num, Math.max(a, b)), Math.min(a, b));\n\n// this is where the synthesis calculation occurs\nfunction process(block) {\n    // block.knobs[0] = 0.5\n\t// Knob ranges from -5 to 5 octaves\n\t// var pitch = block.knobs[0] * 10 - 5\n\t// Input follows 1V/oct standard\n    // pitch += block.inputs[0][0]\n    \n    // input 2 on the prototype module corresponds to the 2nd index of the block.inputs array, i.e. block.inputs[1]\n    amp = block.inputs[1][0]\n\n    // compare the amplitude of the two signal inputs\n    compare = [block.inputs[0][0], block.inputs[1][0]]\n    // get the max\n    max = Math.max(...compare)\n    // get the min\n    min = Math.min(...compare)\n\n    // the 1st knob on the prototype module will affect the biasing between input 1 or 2    \n    var bias = block.knobs[0] * 2 - 1\n    \n    // bias_cv += bias * Math.pow(2, block.inputs[2][0]);\n    if(bias < 0.){\n        mix = clampNumber( ((Math.abs(bias) * min) + (bias * max) * max * block.inputs[2][0]), -10., 10.)\n    } else if (bias > 0.){\n        mix = clampNumber( ((bias * max) + ((bias * -1) * min) * min * block.inputs[2][0]), -10., 10.)\n    }\n\n    var freq = 1\n\t//display(\"Freq: \" + freq.toFixed(3) + \" Hz\")\n\n\t// Set all samples in output buffer: this is where each sample is calculated, hence the for...loop. \n\tvar deltaPhase = config.frameDivider * block.sampleTime * freq\n\tfor (var i = 0; i < block.bufferSize; i++) {\n\t\t// Accumulate phase\n\t\tphase += deltaPhase\n\t\t// Wrap phase around range [0, 1]\n        phase %= 1\n        // this is like the console.log output of the prototype module. unfortunately it only displays a single concatenated string. \n        display(\"Logic Module: max, min, mix\" + mix)\n        \n\t\t// Convert phase to sine output\n        //block.outputs[0][i] = Math.sin(2 * Math.PI * phase) * 5 * amp\n        block.outputs[0][i] = max\n        block.outputs[1][i] = min\n        block.outputs[2][i] = mix\n\t}\n}\n"
      },
      "pos": [
        53,
        3
      ]
    },
    {
      "id": 27,
      "plugin": "Fundamental",
      "version": "1.4.0",
      "model": "LFO",
      "params": [
        {
          "id": 0,
          "value": 0.0
        },
        {
          "id": 1,
          "value": 0.0
        },
        {
          "id": 2,
          "value": -6.08299541
        },
        {
          "id": 3,
          "value": 0.683999538
        },
        {
          "id": 4,
          "value": 0.422999501
        },
        {
          "id": 5,
          "value": 0.671990454
        },
        {
          "id": 6,
          "value": 0.0
        }
      ],
      "leftModuleId": 46,
      "rightModuleId": 44,
      "pos": [
        13,
        2
      ]
    },
    {
      "id": 29,
      "plugin": "VCV-Recorder",
      "version": "1.0.1",
      "model": "Recorder",
      "params": [
        {
          "id": 0,
          "value": 1.0
        },
        {
          "id": 1,
          "value": 0.0
        }
      ],
      "data": {
        "format": "wav",
        "path": "/Users/lorenasalome/Documents/DigMediaYorkU/VSL/gitshow12/recording.wav",
        "incrementPath": true,
        "sampleRate": 48000,
        "depth": 16,
        "bitRate": 320000
      },
      "pos": [
        96,
        2
      ]
    },
    {
      "id": 30,
      "plugin": "Fundamental",
      "version": "1.4.0",
      "model": "Scope",
      "params": [
        {
          "id": 0,
          "value": 0.0
        },
        {
          "id": 1,
          "value": 3.48219299
        },
        {
          "id": 2,
          "value": 2.0
        },
        {
          "id": 3,
          "value": -0.473535538
        },
        {
          "id": 4,
          "value": 13.1629677
        },
        {
          "id": 5,
          "value": 0.0
        },
        {
          "id": 6,
          "value": -9.85886574
        },
        {
          "id": 7,
          "value": 0.0
        }
      ],
      "rightModuleId": 64,
      "data": {
        "lissajous": 0,
        "external": 0
      },
      "pos": [
        78,
        3
      ]
    },
    {
      "id": 32,
      "plugin": "Befaco",
      "version": "1.0.0",
      "model": "SpringReverb",
      "params": [
        {
          "id": 0,
          "value": 0.351487756
        },
        {
          "id": 1,
          "value": 0.593113899
        },
        {
          "id": 2,
          "value": 0.0806217194
        },
        {
          "id": 3,
          "value": 0.736088991
        }
      ],
      "pos": [
        43,
        2
      ]
    },
    {
      "id": 43,
      "plugin": "Fundamental",
      "version": "1.4.0",
      "model": "Delay",
      "params": [
        {
          "id": 0,
          "value": 0.0278541446
        },
        {
          "id": 1,
          "value": 0.118219197
        },
        {
          "id": 2,
          "value": 0.772997022
        },
        {
          "id": 3,
          "value": 0.271866679
        }
      ],
      "leftModuleId": 44,
      "pos": [
        31,
        2
      ]
    },
    {
      "id": 44,
      "plugin": "Fundamental",
      "version": "1.4.0",
      "model": "ADSR",
      "params": [
        {
          "id": 0,
          "value": 0.428017229
        },
        {
          "id": 1,
          "value": 0.605000019
        },
        {
          "id": 2,
          "value": 0.603499472
        },
        {
          "id": 3,
          "value": 0.689500332
        }
      ],
      "leftModuleId": 27,
      "rightModuleId": 43,
      "pos": [
        23,
        2
      ]
    },
    {
      "id": 46,
      "plugin": "Fundamental",
      "version": "1.4.0",
      "model": "VCO",
      "params": [
        {
          "id": 0,
          "value": 1.0
        },
        {
          "id": 1,
          "value": 0.0
        },
        {
          "id": 2,
          "value": -44.4420128
        },
        {
          "id": 3,
          "value": -0.122999839
        },
        {
          "id": 4,
          "value": 0.630000114
        },
        {
          "id": 5,
          "value": 0.757249534
        },
        {
          "id": 6,
          "value": 0.585000157
        }
      ],
      "leftModuleId": 48,
      "rightModuleId": 27,
      "pos": [
        3,
        2
      ]
    },
    {
      "id": 48,
      "plugin": "Fundamental",
      "version": "1.4.0",
      "model": "Noise",
      "params": [],
      "rightModuleId": 46,
      "pos": [
        0,
        2
      ]
    },
    {
      "id": 49,
      "plugin": "ModularFungi",
      "version": "1.0.0",
      "model": "Blank20HP",
      "params": [],
      "leftModuleId": 60,
      "style": 0.0,
      "pos": [
        82,
        1
      ]
    },
    {
      "id": 50,
      "plugin": "ImpromptuModular",
      "version": "1.1.3",
      "model": "Clocked",
      "params": [
        {
          "id": 0,
          "value": 60.0
        },
        {
          "id": 1,
          "value": -13.0
        },
        {
          "id": 2,
          "value": 0.0
        },
        {
          "id": 3,
          "value": 0.0
        },
        {
          "id": 4,
          "value": 0.201000035
        },
        {
          "id": 5,
          "value": 0.0
        },
        {
          "id": 6,
          "value": 0.0
        },
        {
          "id": 7,
          "value": 0.0
        },
        {
          "id": 8,
          "value": 0.625999868
        },
        {
          "id": 9,
          "value": 0.5
        },
        {
          "id": 10,
          "value": 0.5
        },
        {
          "id": 11,
          "value": 0.5
        },
        {
          "id": 12,
          "value": 0.0
        },
        {
          "id": 13,
          "value": 0.0
        },
        {
          "id": 14,
          "value": 0.0
        },
        {
          "id": 15,
          "value": 1.0
        },
        {
          "id": 16,
          "value": 0.0
        },
        {
          "id": 17,
          "value": 0.0
        },
        {
          "id": 18,
          "value": 0.0
        },
        {
          "id": 19,
          "value": 0.0
        }
      ],
      "rightModuleId": 53,
      "data": {
        "panelTheme": 0,
        "running": true,
        "displayDelayNoteMode": true,
        "bpmDetectionMode": false,
        "restartOnStopStartRun": 0,
        "sendResetOnRestart": false,
        "ppqn": 4,
        "resetClockOutputsHigh": true,
        "momentaryRunInput": true
      },
      "pos": [
        0,
        1
      ]
    },
    {
      "id": 51,
      "plugin": "Valley",
      "version": "1.0.1",
      "model": "Plateau",
      "params": [
        {
          "id": 0,
          "value": 0.736226678
        },
        {
          "id": 1,
          "value": 0.572849631
        },
        {
          "id": 2,
          "value": 0.147610694
        },
        {
          "id": 3,
          "value": 1.78887427
        },
        {
          "id": 4,
          "value": 1.38540983
        },
        {
          "id": 5,
          "value": 0.461436272
        },
        {
          "id": 6,
          "value": 6.13400888
        },
        {
          "id": 7,
          "value": 0.533777773
        },
        {
          "id": 8,
          "value": 2.68738747
        },
        {
          "id": 9,
          "value": 4.9036212
        },
        {
          "id": 10,
          "value": 0.993857801
        },
        {
          "id": 11,
          "value": 0.832613051
        },
        {
          "id": 12,
          "value": 6.82703972
        },
        {
          "id": 13,
          "value": 0.0
        },
        {
          "id": 14,
          "value": 0.0
        },
        {
          "id": 15,
          "value": 1.0
        },
        {
          "id": 16,
          "value": 0.0
        },
        {
          "id": 17,
          "value": 0.782840133
        },
        {
          "id": 18,
          "value": 0.286067724
        },
        {
          "id": 19,
          "value": 0.157816172
        },
        {
          "id": 20,
          "value": -0.686204433
        },
        {
          "id": 21,
          "value": 0.417400479
        },
        {
          "id": 22,
          "value": -0.884180188
        },
        {
          "id": 23,
          "value": -0.668037653
        },
        {
          "id": 24,
          "value": -0.373459578
        },
        {
          "id": 25,
          "value": -0.719455481
        },
        {
          "id": 26,
          "value": -0.387211323
        },
        {
          "id": 27,
          "value": 0.685845256
        },
        {
          "id": 28,
          "value": 0.0601581335
        },
        {
          "id": 29,
          "value": 1.0
        },
        {
          "id": 30,
          "value": 0.0
        }
      ],
      "leftModuleId": 54,
      "rightModuleId": 60,
      "data": {
        "frozen": false,
        "freezeToggle": true,
        "panelStyle": 0,
        "tuned": 1,
        "diffuseInput": 0,
        "preDelayCVSens": 1,
        "inputSensitivity": 0,
        "outputSaturation": 1
      },
      "pos": [
        58,
        1
      ]
    },
    {
      "id": 53,
      "plugin": "cf",
      "version": "1.1.1",
      "model": "PLAYER",
      "params": [
        {
          "id": 0,
          "value": 0.0
        },
        {
          "id": 1,
          "value": 0.0
        },
        {
          "id": 2,
          "value": 0.0
        },
        {
          "id": 3,
          "value": 0.0
        },
        {
          "id": 4,
          "value": 0.0
        },
        {
          "id": 5,
          "value": 0.0
        },
        {
          "id": 6,
          "value": 0.0
        }
      ],
      "leftModuleId": 50,
      "rightModuleId": 57,
      "data": {
        "lastPath": "/Users/RAC.H/Desktop/Cinematic Female Vocal 32.wav",
        "oscstate": 1
      },
      "pos": [
        20,
        1
      ]
    },
    {
      "id": 54,
      "plugin": "VultModulesFree",
      "version": "1.6.0",
      "model": "Trummor2",
      "params": [
        {
          "id": 0,
          "value": -0.0849355236
        },
        {
          "id": 1,
          "value": 0.200080395
        },
        {
          "id": 2,
          "value": 0.155259252
        },
        {
          "id": 3,
          "value": 0.0953020453
        },
        {
          "id": 4,
          "value": 0.097248733
        },
        {
          "id": 5,
          "value": -0.348168135
        },
        {
          "id": 6,
          "value": 0.0292975903
        },
        {
          "id": 7,
          "value": 0.475692332
        },
        {
          "id": 8,
          "value": 0.00456041098
        },
        {
          "id": 9,
          "value": 1.0
        },
        {
          "id": 10,
          "value": 0.492441237
        },
        {
          "id": 11,
          "value": 0.958913565
        },
        {
          "id": 12,
          "value": 0.355379075
        },
        {
          "id": 13,
          "value": -0.753879666
        },
        {
          "id": 14,
          "value": -0.997600436
        },
        {
          "id": 15,
          "value": 0.491697669
        },
        {
          "id": 16,
          "value": 0.155115604
        },
        {
          "id": 17,
          "value": 1.0
        },
        {
          "id": 18,
          "value": 0.0843930244
        },
        {
          "id": 19,
          "value": 0.301379502
        },
        {
          "id": 20,
          "value": 0.927099824
        },
        {
          "id": 21,
          "value": 2.0
        },
        {
          "id": 22,
          "value": 0.254169583
        },
        {
          "id": 23,
          "value": 0.111443222
        },
        {
          "id": 24,
          "value": 0.0
        },
        {
          "id": 25,
          "value": 0.778144121
        },
        {
          "id": 26,
          "value": -0.954583645
        },
        {
          "id": 27,
          "value": 0.393607378
        },
        {
          "id": 28,
          "value": 0.471240997
        },
        {
          "id": 29,
          "value": 0.0
        },
        {
          "id": 30,
          "value": 0.0
        },
        {
          "id": 31,
          "value": 0.0
        },
        {
          "id": 32,
          "value": 0.0
        }
      ],
      "leftModuleId": 57,
      "rightModuleId": 51,
      "data": {
        "mod_a": 20,
        "mod_b": 9,
        "mod_c": 7,
        "mod_d": 11,
        "mk2": true
      },
      "pos": [
        38,
        1
      ]
    },
    {
      "id": 57,
      "plugin": "cf",
      "version": "1.1.1",
      "model": "PLAYER",
      "params": [
        {
          "id": 0,
          "value": 3.03541732
        },
        {
          "id": 1,
          "value": 4.12333012
        },
        {
          "id": 2,
          "value": 0.730409265
        },
        {
          "id": 3,
          "value": 0.725274563
        },
        {
          "id": 4,
          "value": 0.0
        },
        {
          "id": 5,
          "value": 0.0
        },
        {
          "id": 6,
          "value": 0.0
        }
      ],
      "leftModuleId": 53,
      "rightModuleId": 54,
      "data": {
        "lastPath": "/Users/RAC.H/Desktop/Musical composition filtered beeps bells_BLASTWAVEFX_00851.wav",
        "oscstate": 1
      },
      "pos": [
        29,
        1
      ]
    },
    {
      "id": 58,
      "plugin": "Fundamental",
      "version": "1.4.0",
      "model": "VCMixer",
      "params": [
        {
          "id": 0,
          "value": 1.58422577
        },
        {
          "id": 1,
          "value": 1.03118396
        },
        {
          "id": 2,
          "value": 1.20651543
        },
        {
          "id": 3,
          "value": 0.502452374
        },
        {
          "id": 4,
          "value": 0.773235679
        }
      ],
      "leftModuleId": 1,
      "rightModuleId": 62,
      "pos": [
        78,
        2
      ]
    },
    {
      "id": 60,
      "plugin": "Valley",
      "version": "1.0.1",
      "model": "Plateau",
      "params": [
        {
          "id": 0,
          "value": 0.725248933
        },
        {
          "id": 1,
          "value": 0.754923165
        },
        {
          "id": 2,
          "value": 0.0146603882
        },
        {
          "id": 3,
          "value": 9.14311123
        },
        {
          "id": 4,
          "value": 6.74471092
        },
        {
          "id": 5,
          "value": 0.0766764879
        },
        {
          "id": 6,
          "value": 2.01536298
        },
        {
          "id": 7,
          "value": 0.129203752
        },
        {
          "id": 8,
          "value": 0.980122685
        },
        {
          "id": 9,
          "value": 5.05348158
        },
        {
          "id": 10,
          "value": 0.463370144
        },
        {
          "id": 11,
          "value": 0.507745683
        },
        {
          "id": 12,
          "value": 2.73248768
        },
        {
          "id": 13,
          "value": 0.0
        },
        {
          "id": 14,
          "value": 0.0
        },
        {
          "id": 15,
          "value": 0.0
        },
        {
          "id": 16,
          "value": 0.0
        },
        {
          "id": 17,
          "value": -0.730292559
        },
        {
          "id": 18,
          "value": -0.464478254
        },
        {
          "id": 19,
          "value": -0.705768466
        },
        {
          "id": 20,
          "value": -0.622404695
        },
        {
          "id": 21,
          "value": 0.286712646
        },
        {
          "id": 22,
          "value": 0.372678399
        },
        {
          "id": 23,
          "value": -0.679646969
        },
        {
          "id": 24,
          "value": -0.988264203
        },
        {
          "id": 25,
          "value": -0.895100117
        },
        {
          "id": 26,
          "value": -0.775951147
        },
        {
          "id": 27,
          "value": 0.19088912
        },
        {
          "id": 28,
          "value": -0.816453576
        },
        {
          "id": 29,
          "value": 0.0
        },
        {
          "id": 30,
          "value": 1.0
        }
      ],
      "leftModuleId": 51,
      "rightModuleId": 49,
      "data": {
        "frozen": false,
        "freezeToggle": false,
        "panelStyle": 0,
        "tuned": 0,
        "diffuseInput": 1,
        "preDelayCVSens": 1,
        "inputSensitivity": 1,
        "outputSaturation": 1
      },
      "pos": [
        70,
        1
      ]
    },
    {
      "id": 61,
      "plugin": "ImpromptuModular",
      "version": "1.1.3",
      "model": "Clocked",
      "params": [
        {
          "id": 0,
          "value": 194.0
        },
        {
          "id": 1,
          "value": -13.0
        },
        {
          "id": 2,
          "value": 0.0
        },
        {
          "id": 3,
          "value": 0.0
        },
        {
          "id": 4,
          "value": 0.315579891
        },
        {
          "id": 5,
          "value": 0.50846231
        },
        {
          "id": 6,
          "value": 0.270679712
        },
        {
          "id": 7,
          "value": 0.767694831
        },
        {
          "id": 8,
          "value": 0.722112834
        },
        {
          "id": 9,
          "value": 0.941564381
        },
        {
          "id": 10,
          "value": 0.599768758
        },
        {
          "id": 11,
          "value": 0.884786367
        },
        {
          "id": 12,
          "value": 0.0
        },
        {
          "id": 13,
          "value": 0.0
        },
        {
          "id": 14,
          "value": 0.0
        },
        {
          "id": 15,
          "value": 5.0
        },
        {
          "id": 16,
          "value": 1.0
        },
        {
          "id": 17,
          "value": 2.0
        },
        {
          "id": 18,
          "value": 0.0
        },
        {
          "id": 19,
          "value": 0.0
        }
      ],
      "data": {
        "panelTheme": 0,
        "running": true,
        "displayDelayNoteMode": true,
        "bpmDetectionMode": false,
        "restartOnStopStartRun": 0,
        "sendResetOnRestart": false,
        "ppqn": 4,
        "resetClockOutputsHigh": true,
        "momentaryRunInput": true
      },
      "pos": [
        29,
        0
      ]
    },
    {
      "id": 62,
      "plugin": "NYSTHI",
      "version": "1.0.9",
      "model": "MasterRecorder",
      "params": [
        {
          "id": 0,
          "value": 0.0
        },
        {
          "id": 1,
          "value": 0.0
        },
        {
          "id": 2,
          "value": 1.0
        }
      ],
      "leftModuleId": 58,
      "data": {
        "nysthi_id": "MR_n8sdHak1",
        "wavebits": 9,
        "m_attenuation": 1.0
      },
      "pos": [
        88,
        2
      ]
    },
    {
      "id": 63,
      "plugin": "cf",
      "version": "1.1.1",
      "model": "PLAYER",
      "params": [
        {
          "id": 0,
          "value": 8.78538322
        },
        {
          "id": 1,
          "value": 1.45796871
        },
        {
          "id": 2,
          "value": -0.396988392
        },
        {
          "id": 3,
          "value": 0.513413429
        },
        {
          "id": 4,
          "value": 0.0
        },
        {
          "id": 5,
          "value": 0.0
        },
        {
          "id": 6,
          "value": 0.0
        }
      ],
      "leftModuleId": 64,
      "rightModuleId": 65,
      "data": {
        "lastPath": "/Users/RAC.H/Desktop/RAD_TEXTURE_EDT_01.wav",
        "oscstate": 1
      },
      "pos": [
        101,
        3
      ]
    },
    {
      "id": 64,
      "plugin": "Fundamental",
      "version": "1.4.0",
      "model": "VCMixer",
      "params": [
        {
          "id": 0,
          "value": 0.0608539581
        },
        {
          "id": 1,
          "value": 0.324276596
        },
        {
          "id": 2,
          "value": 0.994326055
        },
        {
          "id": 3,
          "value": 0.984753847
        },
        {
          "id": 4,
          "value": 0.93503505
        }
      ],
      "leftModuleId": 30,
      "rightModuleId": 63,
      "pos": [
        91,
        3
      ]
    },
    {
      "id": 65,
      "plugin": "Valley",
      "version": "1.0.1",
      "model": "Plateau",
      "params": [
        {
          "id": 0,
          "value": 0.611956596
        },
        {
          "id": 1,
          "value": 0.938089132
        },
        {
          "id": 2,
          "value": 0.5
        },
        {
          "id": 3,
          "value": 8.1507616
        },
        {
          "id": 4,
          "value": 0.563180447
        },
        {
          "id": 5,
          "value": 0.757020056
        },
        {
          "id": 6,
          "value": 5.97437811
        },
        {
          "id": 7,
          "value": 0.559332728
        },
        {
          "id": 8,
          "value": 4.77969074
        },
        {
          "id": 9,
          "value": 9.40907097
        },
        {
          "id": 10,
          "value": 0.845050335
        },
        {
          "id": 11,
          "value": 0.812033117
        },
        {
          "id": 12,
          "value": 16.0
        },
        {
          "id": 13,
          "value": 0.0
        },
        {
          "id": 14,
          "value": 0.0
        },
        {
          "id": 15,
          "value": 1.0
        },
        {
          "id": 16,
          "value": 0.0
        },
        {
          "id": 17,
          "value": 0.806883931
        },
        {
          "id": 18,
          "value": 0.169410825
        },
        {
          "id": 19,
          "value": 0.853532791
        },
        {
          "id": 20,
          "value": 0.692695975
        },
        {
          "id": 21,
          "value": 0.690846682
        },
        {
          "id": 22,
          "value": -0.305618763
        },
        {
          "id": 23,
          "value": 0.140074968
        },
        {
          "id": 24,
          "value": 0.544703245
        },
        {
          "id": 25,
          "value": -0.716940403
        },
        {
          "id": 26,
          "value": -0.30278182
        },
        {
          "id": 27,
          "value": 0.938295841
        },
        {
          "id": 28,
          "value": 0.421199918
        },
        {
          "id": 29,
          "value": 0.0
        },
        {
          "id": 30,
          "value": 0.0
        }
      ],
      "leftModuleId": 63,
      "data": {
        "frozen": false,
        "freezeToggle": true,
        "panelStyle": 0,
        "tuned": 0,
        "diffuseInput": 0,
        "preDelayCVSens": 1,
        "inputSensitivity": 1,
        "outputSaturation": 1
      },
      "pos": [
        110,
        3
      ]
    }
  ],
  "cables": [
    {
      "id": 346,
      "outputModuleId": 2,
      "outputId": 1,
      "inputModuleId": 30,
      "inputId": 0,
      "color": "#c91847"
    },
    {
      "id": 347,
      "outputModuleId": 2,
      "outputId": 2,
      "inputModuleId": 30,
      "inputId": 1,
      "color": "#0986ad"
    },
    {
      "id": 358,
      "outputModuleId": 32,
      "outputId": 0,
      "inputModuleId": 17,
      "inputId": 0,
      "color": "#c91847"
    },
    {
      "id": 374,
      "outputModuleId": 4,
      "outputId": 1,
      "inputModuleId": 32,
      "inputId": 4,
      "color": "#c91847"
    },
    {
      "id": 359,
      "outputModuleId": 32,
      "outputId": 1,
      "inputModuleId": 17,
      "inputId": 1,
      "color": "#0986ad"
    },
    {
      "id": 397,
      "outputModuleId": 27,
      "outputId": 2,
      "inputModuleId": 4,
      "inputId": 3,
      "color": "#0c8e15"
    },
    {
      "id": 409,
      "outputModuleId": 27,
      "outputId": 1,
      "inputModuleId": 44,
      "inputId": 4,
      "color": "#c91847"
    },
    {
      "id": 403,
      "outputModuleId": 44,
      "outputId": 0,
      "inputModuleId": 43,
      "inputId": 4,
      "color": "#0c8e15"
    },
    {
      "id": 426,
      "outputModuleId": 4,
      "outputId": 0,
      "inputModuleId": 17,
      "inputId": 2,
      "color": "#c9b70e"
    },
    {
      "id": 417,
      "outputModuleId": 46,
      "outputId": 3,
      "inputModuleId": 43,
      "inputId": 0,
      "color": "#0c8e15"
    },
    {
      "id": 418,
      "outputModuleId": 46,
      "outputId": 2,
      "inputModuleId": 43,
      "inputId": 1,
      "color": "#c91847"
    },
    {
      "id": 428,
      "outputModuleId": 27,
      "outputId": 0,
      "inputModuleId": 44,
      "inputId": 3,
      "color": "#c91847"
    },
    {
      "id": 371,
      "outputModuleId": 17,
      "outputId": 1,
      "inputModuleId": 2,
      "inputId": 1,
      "color": "#0986ad"
    },
    {
      "id": 433,
      "outputModuleId": 17,
      "outputId": 0,
      "inputModuleId": 2,
      "inputId": 2,
      "color": "#0c8e15"
    },
    {
      "id": 437,
      "outputModuleId": 48,
      "outputId": 0,
      "inputModuleId": 46,
      "inputId": 1,
      "color": "#0986ad"
    },
    {
      "id": 434,
      "outputModuleId": 46,
      "outputId": 1,
      "inputModuleId": 44,
      "inputId": 1,
      "color": "#0c8e15"
    },
    {
      "id": 438,
      "outputModuleId": 46,
      "outputId": 0,
      "inputModuleId": 46,
      "inputId": 3,
      "color": "#0c8e15"
    },
    {
      "id": 439,
      "outputModuleId": 46,
      "outputId": 0,
      "inputModuleId": 44,
      "inputId": 2,
      "color": "#c91847"
    },
    {
      "id": 440,
      "outputModuleId": 46,
      "outputId": 0,
      "inputModuleId": 44,
      "inputId": 0,
      "color": "#0986ad"
    },
    {
      "id": 442,
      "outputModuleId": 48,
      "outputId": 1,
      "inputModuleId": 27,
      "inputId": 0,
      "color": "#c91847"
    },
    {
      "id": 410,
      "outputModuleId": 43,
      "outputId": 0,
      "inputModuleId": 51,
      "inputId": 0,
      "color": "#0986ad"
    },
    {
      "id": 441,
      "outputModuleId": 44,
      "outputId": 0,
      "inputModuleId": 51,
      "inputId": 1,
      "color": "#c9b70e"
    },
    {
      "id": 443,
      "outputModuleId": 51,
      "outputId": 0,
      "inputModuleId": 32,
      "inputId": 2,
      "color": "#0986ad"
    },
    {
      "id": 444,
      "outputModuleId": 51,
      "outputId": 1,
      "inputModuleId": 32,
      "inputId": 3,
      "color": "#c9b70e"
    },
    {
      "id": 445,
      "outputModuleId": 50,
      "outputId": 1,
      "inputModuleId": 44,
      "inputId": 5,
      "color": "#c9b70e"
    },
    {
      "id": 460,
      "outputModuleId": 53,
      "outputId": 1,
      "inputModuleId": 54,
      "inputId": 8,
      "color": "#c91847"
    },
    {
      "id": 461,
      "outputModuleId": 53,
      "outputId": 0,
      "inputModuleId": 54,
      "inputId": 7,
      "color": "#0986ad"
    },
    {
      "id": 475,
      "outputModuleId": 57,
      "outputId": 1,
      "inputModuleId": 60,
      "inputId": 0,
      "color": "#0986ad"
    },
    {
      "id": 485,
      "outputModuleId": 57,
      "outputId": 0,
      "inputModuleId": 60,
      "inputId": 1,
      "color": "#0986ad"
    },
    {
      "id": 487,
      "outputModuleId": 60,
      "outputId": 0,
      "inputModuleId": 58,
      "inputId": 3,
      "color": "#0c8e15"
    },
    {
      "id": 488,
      "outputModuleId": 60,
      "outputId": 1,
      "inputModuleId": 58,
      "inputId": 4,
      "color": "#c91847"
    },
    {
      "id": 477,
      "outputModuleId": 58,
      "outputId": 0,
      "inputModuleId": 1,
      "inputId": 0,
      "color": "#0c8e15"
    },
    {
      "id": 478,
      "outputModuleId": 58,
      "outputId": 0,
      "inputModuleId": 1,
      "inputId": 1,
      "color": "#c91847"
    },
    {
      "id": 491,
      "outputModuleId": 50,
      "outputId": 2,
      "inputModuleId": 53,
      "inputId": 5,
      "color": "#0c8e15"
    },
    {
      "id": 492,
      "outputModuleId": 50,
      "outputId": 5,
      "inputModuleId": 57,
      "inputId": 4,
      "color": "#c91847"
    },
    {
      "id": 494,
      "outputModuleId": 61,
      "outputId": 0,
      "inputModuleId": 54,
      "inputId": 1,
      "color": "#0c8e15"
    },
    {
      "id": 493,
      "outputModuleId": 61,
      "outputId": 1,
      "inputModuleId": 57,
      "inputId": 1,
      "color": "#c9b70e"
    },
    {
      "id": 486,
      "outputModuleId": 54,
      "outputId": 4,
      "inputModuleId": 2,
      "inputId": 3,
      "color": "#c9b70e"
    },
    {
      "id": 471,
      "outputModuleId": 54,
      "outputId": 5,
      "inputModuleId": 2,
      "inputId": 4,
      "color": "#c9b70e"
    },
    {
      "id": 489,
      "outputModuleId": 2,
      "outputId": 0,
      "inputModuleId": 64,
      "inputId": 1,
      "color": "#0986ad"
    },
    {
      "id": 490,
      "outputModuleId": 2,
      "outputId": 0,
      "inputModuleId": 64,
      "inputId": 2,
      "color": "#c9b70e"
    },
    {
      "id": 500,
      "outputModuleId": 64,
      "outputId": 0,
      "inputModuleId": 58,
      "inputId": 1,
      "color": "#c9b70e"
    },
    {
      "id": 501,
      "outputModuleId": 64,
      "outputId": 0,
      "inputModuleId": 58,
      "inputId": 2,
      "color": "#0c8e15"
    },
    {
      "id": 498,
      "outputModuleId": 63,
      "outputId": 1,
      "inputModuleId": 65,
      "inputId": 1,
      "color": "#c91847"
    },
    {
      "id": 497,
      "outputModuleId": 63,
      "outputId": 0,
      "inputModuleId": 65,
      "inputId": 0,
      "color": "#0c8e15"
    },
    {
      "id": 495,
      "outputModuleId": 58,
      "outputId": 0,
      "inputModuleId": 62,
      "inputId": 0,
      "color": "#0986ad"
    },
    {
      "id": 496,
      "outputModuleId": 58,
      "outputId": 0,
      "inputModuleId": 62,
      "inputId": 1,
      "color": "#c9b70e"
    },
    {
      "id": 503,
      "outputModuleId": 65,
      "outputId": 1,
      "inputModuleId": 64,
      "inputId": 4,
      "color": "#c91847"
    },
    {
      "id": 506,
      "outputModuleId": 65,
      "outputId": 0,
      "inputModuleId": 64,
      "inputId": 3,
      "color": "#0c8e15"
    }
  ]
}