{
  "version": "1.1.6",
  "modules": [
    {
      "id": 1,
      "plugin": "Core",
      "version": "1.1.6",
      "model": "AudioInterface",
      "params": [],
      "leftModuleId": 97,
      "rightModuleId": 30,
      "data": {
        "audio": {
          "driver": 6,
          "deviceName": "扬声器 (Razer Surround Audio Controller)",
          "offset": 0,
          "maxChannels": 8,
          "sampleRate": 96000,
          "blockSize": 1024
        }
      },
      "pos": [
        92,
        2
      ]
    },
    {
      "id": 30,
      "plugin": "Fundamental",
      "version": "1.4.0",
      "model": "Scope",
      "params": [
        {
          "id": 0,
          "value": -2.0
        },
        {
          "id": 1,
          "value": -0.0278060436
        },
        {
          "id": 2,
          "value": -2.0
        },
        {
          "id": 3,
          "value": 0.0364644825
        },
        {
          "id": 4,
          "value": 13.9879684
        },
        {
          "id": 5,
          "value": 0.0
        },
        {
          "id": 6,
          "value": 0.191129446
        },
        {
          "id": 7,
          "value": 0.0
        }
      ],
      "leftModuleId": 1,
      "rightModuleId": 67,
      "data": {
        "lissajous": 0,
        "external": 0
      },
      "pos": [
        102,
        2
      ]
    },
    {
      "id": 67,
      "plugin": "VCV-Recorder",
      "version": "1.0.1",
      "model": "Recorder",
      "params": [
        {
          "id": 0,
          "value": 1.0
        },
        {
          "id": 1,
          "value": 0.0
        }
      ],
      "leftModuleId": 30,
      "data": {
        "format": "wav",
        "path": "C:\\Users\\Zhouyang Lu\\Documents\\gitshow11/recording.wav",
        "incrementPath": false,
        "sampleRate": 44100,
        "depth": 16,
        "bitRate": 320000
      },
      "pos": [
        115,
        2
      ]
    },
    {
      "id": 76,
      "plugin": "ImpromptuModular",
      "version": "1.1.3",
      "model": "Clocked",
      "params": [
        {
          "id": 0,
          "value": 30.0
        },
        {
          "id": 1,
          "value": 2.0
        },
        {
          "id": 2,
          "value": 2.0
        },
        {
          "id": 3,
          "value": 5.0
        },
        {
          "id": 4,
          "value": 0.00657987921
        },
        {
          "id": 5,
          "value": 0.0374622345
        },
        {
          "id": 6,
          "value": 0.0336797312
        },
        {
          "id": 7,
          "value": 0.0399997421
        },
        {
          "id": 8,
          "value": 0.505000055
        },
        {
          "id": 9,
          "value": 0.499064088
        },
        {
          "id": 10,
          "value": 0.518768787
        },
        {
          "id": 11,
          "value": 0.497786671
        },
        {
          "id": 12,
          "value": 0.0
        },
        {
          "id": 13,
          "value": 0.0
        },
        {
          "id": 14,
          "value": 0.0
        },
        {
          "id": 15,
          "value": 0.0
        },
        {
          "id": 16,
          "value": 0.0
        },
        {
          "id": 17,
          "value": 0.0
        },
        {
          "id": 18,
          "value": 0.0
        },
        {
          "id": 19,
          "value": 0.0
        }
      ],
      "rightModuleId": 95,
      "data": {
        "panelTheme": 0,
        "running": true,
        "displayDelayNoteMode": true,
        "bpmDetectionMode": false,
        "restartOnStopStartRun": 0,
        "sendResetOnRestart": false,
        "ppqn": 24,
        "resetClockOutputsHigh": true,
        "momentaryRunInput": true
      },
      "pos": [
        0,
        2
      ]
    },
    {
      "id": 77,
      "plugin": "ImpromptuModular",
      "version": "1.1.3",
      "model": "Clocked",
      "params": [
        {
          "id": 0,
          "value": 125.0
        },
        {
          "id": 1,
          "value": -0.0
        },
        {
          "id": 2,
          "value": 0.0
        },
        {
          "id": 3,
          "value": 0.0
        },
        {
          "id": 4,
          "value": -0.0479999371
        },
        {
          "id": 5,
          "value": 0.0
        },
        {
          "id": 6,
          "value": 0.0
        },
        {
          "id": 7,
          "value": 0.0
        },
        {
          "id": 8,
          "value": 0.490999848
        },
        {
          "id": 9,
          "value": 0.5
        },
        {
          "id": 10,
          "value": 0.5
        },
        {
          "id": 11,
          "value": 0.5
        },
        {
          "id": 12,
          "value": 0.0
        },
        {
          "id": 13,
          "value": 0.0
        },
        {
          "id": 14,
          "value": 0.0
        },
        {
          "id": 15,
          "value": 0.0
        },
        {
          "id": 16,
          "value": 0.0
        },
        {
          "id": 17,
          "value": 0.0
        },
        {
          "id": 18,
          "value": 0.0
        },
        {
          "id": 19,
          "value": 0.0
        }
      ],
      "rightModuleId": 85,
      "data": {
        "panelTheme": 0,
        "running": true,
        "displayDelayNoteMode": true,
        "bpmDetectionMode": false,
        "restartOnStopStartRun": 0,
        "sendResetOnRestart": false,
        "ppqn": 4,
        "resetClockOutputsHigh": true,
        "momentaryRunInput": true
      },
      "pos": [
        0,
        3
      ]
    },
    {
      "id": 78,
      "plugin": "Fundamental",
      "version": "1.4.0",
      "model": "Delay",
      "params": [
        {
          "id": 0,
          "value": 0.794999778
        },
        {
          "id": 1,
          "value": 0.0
        },
        {
          "id": 2,
          "value": 0.287999988
        },
        {
          "id": 3,
          "value": 0.211000174
        }
      ],
      "leftModuleId": 80,
      "rightModuleId": 79,
      "pos": [
        66,
        2
      ]
    },
    {
      "id": 79,
      "plugin": "Fundamental",
      "version": "1.4.0",
      "model": "Delay",
      "params": [
        {
          "id": 0,
          "value": 0.190499961
        },
        {
          "id": 1,
          "value": 0.0
        },
        {
          "id": 2,
          "value": 0.129000008
        },
        {
          "id": 3,
          "value": 0.792000175
        }
      ],
      "leftModuleId": 78,
      "rightModuleId": 97,
      "pos": [
        74,
        2
      ]
    },
    {
      "id": 80,
      "plugin": "Valley",
      "version": "1.0.1",
      "model": "Plateau",
      "params": [
        {
          "id": 0,
          "value": 1.0
        },
        {
          "id": 1,
          "value": 0.0
        },
        {
          "id": 2,
          "value": 0.0
        },
        {
          "id": 3,
          "value": 10.0
        },
        {
          "id": 4,
          "value": 5.20000029
        },
        {
          "id": 5,
          "value": 0.49000001
        },
        {
          "id": 6,
          "value": 10.0
        },
        {
          "id": 7,
          "value": 0.567047954
        },
        {
          "id": 8,
          "value": 10.0
        },
        {
          "id": 9,
          "value": 10.0
        },
        {
          "id": 10,
          "value": 0.0
        },
        {
          "id": 11,
          "value": 0.488499999
        },
        {
          "id": 12,
          "value": 0.0
        },
        {
          "id": 13,
          "value": 0.0
        },
        {
          "id": 14,
          "value": 0.0
        },
        {
          "id": 15,
          "value": 0.0
        },
        {
          "id": 16,
          "value": 0.0
        },
        {
          "id": 17,
          "value": -1.0
        },
        {
          "id": 18,
          "value": 1.0
        },
        {
          "id": 19,
          "value": -1.0
        },
        {
          "id": 20,
          "value": 1.0
        },
        {
          "id": 21,
          "value": 1.0
        },
        {
          "id": 22,
          "value": 1.0
        },
        {
          "id": 23,
          "value": 1.0
        },
        {
          "id": 24,
          "value": 1.0
        },
        {
          "id": 25,
          "value": 1.0
        },
        {
          "id": 26,
          "value": 1.0
        },
        {
          "id": 27,
          "value": 1.0
        },
        {
          "id": 28,
          "value": 1.0
        },
        {
          "id": 29,
          "value": 0.0
        },
        {
          "id": 30,
          "value": 1.0
        }
      ],
      "leftModuleId": 95,
      "rightModuleId": 78,
      "data": {
        "frozen": false,
        "freezeToggle": false,
        "panelStyle": 0,
        "tuned": 0,
        "diffuseInput": 1,
        "preDelayCVSens": 0,
        "inputSensitivity": 0,
        "outputSaturation": 0
      },
      "pos": [
        54,
        2
      ]
    },
    {
      "id": 82,
      "plugin": "Befaco",
      "version": "1.0.0",
      "model": "EvenVCO",
      "params": [
        {
          "id": 0,
          "value": -2.0
        },
        {
          "id": 1,
          "value": 0.0
        },
        {
          "id": 2,
          "value": 0.00200002221
        }
      ],
      "leftModuleId": 100,
      "rightModuleId": 84,
      "pos": [
        52,
        3
      ]
    },
    {
      "id": 83,
      "plugin": "VultModulesFree",
      "version": "1.6.0",
      "model": "Slap",
      "params": [
        {
          "id": 0,
          "value": 0.0
        },
        {
          "id": 1,
          "value": 0.507000029
        },
        {
          "id": 2,
          "value": 0.506500244
        },
        {
          "id": 3,
          "value": 0.48450008
        },
        {
          "id": 4,
          "value": 1.0
        },
        {
          "id": 5,
          "value": -1.0
        },
        {
          "id": 6,
          "value": -0.0160000473
        },
        {
          "id": 7,
          "value": -1.0
        },
        {
          "id": 8,
          "value": 0.0
        }
      ],
      "leftModuleId": 84,
      "pos": [
        70,
        3
      ]
    },
    {
      "id": 84,
      "plugin": "VultModulesFree",
      "version": "1.6.0",
      "model": "Lateralus",
      "params": [
        {
          "id": 0,
          "value": 0.506500006
        },
        {
          "id": 1,
          "value": 0.0
        },
        {
          "id": 2,
          "value": 0.645999789
        },
        {
          "id": 3,
          "value": 1.0
        },
        {
          "id": 4,
          "value": 1.03499961
        },
        {
          "id": 5,
          "value": -1.0
        },
        {
          "id": 6,
          "value": 0.0
        }
      ],
      "leftModuleId": 82,
      "rightModuleId": 83,
      "pos": [
        60,
        3
      ]
    },
    {
      "id": 85,
      "plugin": "StellareModular",
      "version": "1.0.0",
      "model": "TuringMachine",
      "params": [
        {
          "id": 0,
          "value": 0.517000139
        },
        {
          "id": 1,
          "value": 0.494499922
        },
        {
          "id": 2,
          "value": 0.5
        },
        {
          "id": 3,
          "value": 0.5
        },
        {
          "id": 4,
          "value": 0.5
        },
        {
          "id": 5,
          "value": 0.00699996157
        },
        {
          "id": 6,
          "value": 7.0
        },
        {
          "id": 7,
          "value": 1.0
        },
        {
          "id": 8,
          "value": 0.0
        },
        {
          "id": 9,
          "value": 0.0
        },
        {
          "id": 10,
          "value": 0.0
        },
        {
          "id": 11,
          "value": 0.0
        },
        {
          "id": 12,
          "value": 0.0
        }
      ],
      "leftModuleId": 77,
      "rightModuleId": 100,
      "data": {
        "pulses_mode": 0
      },
      "pos": [
        20,
        3
      ]
    },
    {
      "id": 95,
      "plugin": "AudibleInstruments",
      "version": "1.0.0",
      "model": "Elements",
      "params": [
        {
          "id": 0,
          "value": 1.0
        },
        {
          "id": 1,
          "value": 0.0
        },
        {
          "id": 2,
          "value": 0.0
        },
        {
          "id": 3,
          "value": 0.508000016
        },
        {
          "id": 4,
          "value": 1.28999817
        },
        {
          "id": 5,
          "value": 0.0559999384
        },
        {
          "id": 6,
          "value": 0.0169999972
        },
        {
          "id": 7,
          "value": 0.478499949
        },
        {
          "id": 8,
          "value": 0.50849998
        },
        {
          "id": 9,
          "value": 0.201000065
        },
        {
          "id": 10,
          "value": 0.498000056
        },
        {
          "id": 11,
          "value": 0.496500045
        },
        {
          "id": 12,
          "value": 0.503500044
        },
        {
          "id": 13,
          "value": 0.0
        },
        {
          "id": 14,
          "value": 0.426000088
        },
        {
          "id": 15,
          "value": 0.5
        },
        {
          "id": 16,
          "value": 0.765000165
        },
        {
          "id": 17,
          "value": 0.0
        },
        {
          "id": 18,
          "value": 0.0
        },
        {
          "id": 19,
          "value": 0.0
        },
        {
          "id": 20,
          "value": -0.0129999425
        },
        {
          "id": 21,
          "value": 0.0
        },
        {
          "id": 22,
          "value": 0.0
        },
        {
          "id": 23,
          "value": 0.0
        },
        {
          "id": 24,
          "value": 0.0
        },
        {
          "id": 25,
          "value": 0.0
        },
        {
          "id": 26,
          "value": 0.0
        },
        {
          "id": 27,
          "value": 0.0
        }
      ],
      "leftModuleId": 76,
      "rightModuleId": 80,
      "data": {
        "model": 0
      },
      "pos": [
        20,
        2
      ]
    },
    {
      "id": 97,
      "plugin": "Fundamental",
      "version": "1.4.0",
      "model": "VCMixer",
      "params": [
        {
          "id": 0,
          "value": 1.05300033
        },
        {
          "id": 1,
          "value": 1.41421354
        },
        {
          "id": 2,
          "value": 1.41421354
        },
        {
          "id": 3,
          "value": 1.41421354
        },
        {
          "id": 4,
          "value": 1.41421354
        }
      ],
      "leftModuleId": 79,
      "rightModuleId": 1,
      "pos": [
        82,
        2
      ]
    },
    {
      "id": 98,
      "plugin": "cf",
      "version": "1.1.1",
      "model": "PEAK",
      "params": [
        {
          "id": 0,
          "value": 5.05499983
        },
        {
          "id": 1,
          "value": 0.0
        }
      ],
      "rightModuleId": 125,
      "pos": [
        75,
        0
      ]
    },
    {
      "id": 100,
      "plugin": "AudibleInstruments",
      "version": "1.0.0",
      "model": "Rings",
      "params": [
        {
          "id": 0,
          "value": 0.0
        },
        {
          "id": 1,
          "value": 0.0
        },
        {
          "id": 2,
          "value": 0.0
        },
        {
          "id": 3,
          "value": 0.0
        },
        {
          "id": 4,
          "value": 0.509499788
        },
        {
          "id": 5,
          "value": 0.514500141
        },
        {
          "id": 6,
          "value": 0.800500035
        },
        {
          "id": 7,
          "value": 0.0
        },
        {
          "id": 8,
          "value": 0.506999969
        },
        {
          "id": 9,
          "value": 0.0
        },
        {
          "id": 10,
          "value": 1.0
        },
        {
          "id": 11,
          "value": 0.0
        }
      ],
      "leftModuleId": 85,
      "rightModuleId": 82,
      "data": {
        "polyphony": 0,
        "model": 0,
        "easterEgg": false
      },
      "pos": [
        38,
        3
      ]
    },
    {
      "id": 105,
      "plugin": "VultModulesFree",
      "version": "1.6.0",
      "model": "Tohe",
      "params": [
        {
          "id": 0,
          "value": -1.0
        },
        {
          "id": 1,
          "value": 0.0400000326
        },
        {
          "id": 2,
          "value": 1.0
        }
      ],
      "leftModuleId": 110,
      "rightModuleId": 112,
      "pos": [
        34,
        1
      ]
    },
    {
      "id": 108,
      "plugin": "Fundamental",
      "version": "1.4.0",
      "model": "ADSR",
      "params": [
        {
          "id": 0,
          "value": 0.0
        },
        {
          "id": 1,
          "value": 0.0
        },
        {
          "id": 2,
          "value": 1.0
        },
        {
          "id": 3,
          "value": 0.0
        }
      ],
      "leftModuleId": 112,
      "rightModuleId": 111,
      "pos": [
        44,
        1
      ]
    },
    {
      "id": 110,
      "plugin": "Fundamental",
      "version": "1.4.0",
      "model": "VCA",
      "params": [
        {
          "id": 0,
          "value": 1.0
        },
        {
          "id": 1,
          "value": 1.0
        }
      ],
      "leftModuleId": 113,
      "rightModuleId": 105,
      "pos": [
        29,
        1
      ]
    },
    {
      "id": 111,
      "plugin": "ImpromptuModular",
      "version": "1.1.3",
      "model": "Phrase-Seq-16",
      "params": [
        {
          "id": 0,
          "value": 0.0
        },
        {
          "id": 1,
          "value": 0.0
        },
        {
          "id": 2,
          "value": 0.0
        },
        {
          "id": 3,
          "value": 1.0
        },
        {
          "id": 5,
          "value": 0.0
        },
        {
          "id": 6,
          "value": 0.0
        },
        {
          "id": 7,
          "value": 0.0
        },
        {
          "id": 8,
          "value": 0.0
        },
        {
          "id": 9,
          "value": 0.0
        },
        {
          "id": 10,
          "value": 0.0
        },
        {
          "id": 11,
          "value": 0.0
        },
        {
          "id": 12,
          "value": 0.0
        },
        {
          "id": 13,
          "value": 0.0
        },
        {
          "id": 14,
          "value": 0.0
        },
        {
          "id": 15,
          "value": 0.0
        },
        {
          "id": 16,
          "value": 0.0
        },
        {
          "id": 17,
          "value": 0.0
        },
        {
          "id": 18,
          "value": 0.0
        },
        {
          "id": 19,
          "value": 0.200000003
        },
        {
          "id": 20,
          "value": 0.0
        },
        {
          "id": 21,
          "value": 0.0
        },
        {
          "id": 22,
          "value": 0.0
        },
        {
          "id": 23,
          "value": 0.0
        },
        {
          "id": 24,
          "value": 1.0
        },
        {
          "id": 25,
          "value": 0.0
        },
        {
          "id": 26,
          "value": 0.0
        },
        {
          "id": 27,
          "value": 0.0
        },
        {
          "id": 28,
          "value": 0.0
        },
        {
          "id": 29,
          "value": 0.0
        },
        {
          "id": 30,
          "value": 0.0
        },
        {
          "id": 31,
          "value": 0.0
        },
        {
          "id": 32,
          "value": 0.0
        },
        {
          "id": 33,
          "value": 0.0
        },
        {
          "id": 34,
          "value": 0.0
        },
        {
          "id": 35,
          "value": 0.0
        },
        {
          "id": 36,
          "value": 0.0
        },
        {
          "id": 37,
          "value": 0.0
        },
        {
          "id": 38,
          "value": 0.0
        },
        {
          "id": 39,
          "value": 0.0
        },
        {
          "id": 40,
          "value": 0.0
        },
        {
          "id": 41,
          "value": 0.0
        },
        {
          "id": 42,
          "value": 1.0
        },
        {
          "id": 43,
          "value": 0.0
        },
        {
          "id": 44,
          "value": 0.0
        },
        {
          "id": 45,
          "value": 0.0
        },
        {
          "id": 46,
          "value": 2.0
        },
        {
          "id": 47,
          "value": 0.0
        },
        {
          "id": 48,
          "value": 0.0
        },
        {
          "id": 49,
          "value": 0.0
        },
        {
          "id": 50,
          "value": 0.0
        },
        {
          "id": 51,
          "value": 0.0
        },
        {
          "id": 52,
          "value": 0.0
        },
        {
          "id": 53,
          "value": 0.0
        },
        {
          "id": 54,
          "value": 0.0
        },
        {
          "id": 55,
          "value": 0.0
        },
        {
          "id": 56,
          "value": 0.0
        },
        {
          "id": 57,
          "value": 0.0
        },
        {
          "id": 58,
          "value": 0.0
        },
        {
          "id": 59,
          "value": 0.0
        },
        {
          "id": 60,
          "value": 0.0
        },
        {
          "id": 61,
          "value": 0.0
        },
        {
          "id": 62,
          "value": 0.0
        }
      ],
      "leftModuleId": 108,
      "rightModuleId": 121,
      "data": {
        "panelTheme": 0,
        "autoseq": false,
        "autostepLen": false,
        "holdTiedNotes": true,
        "seqCVmethod": 0,
        "pulsesPerStep": 1,
        "running": true,
        "runModeSong3": 0,
        "stepIndexEdit": 5,
        "sequence": 0,
        "phraseIndexEdit": 11,
        "phrases": 4,
        "sequences": [
          16,
          16,
          16,
          16,
          16,
          16,
          16,
          16,
          16,
          16,
          16,
          16,
          16,
          16,
          16,
          16
        ],
        "phrase": [
          0,
          0,
          0,
          0,
          0,
          0,
          0,
          0,
          0,
          0,
          0,
          0,
          0,
          0,
          0,
          0
        ],
        "cv": [
          2.91666675,
          2.0,
          2.58333349,
          2.33333325,
          2.16666675,
          2.41666675,
          2.58333349,
          2.75,
          2.58333349,
          1.75,
          1.33333302,
          2.91666698,
          1.0,
          1.91666698,
          3.0,
          -3.0,
          0.0,
          0.0,
          0.0,
          0.0,
          0.0,
          0.0,
          0.0,
          0.0,
          0.0,
          0.0,
          0.0,
          0.0,
          0.0,
          0.0,
          0.0,
          0.0,
          0.0,
          0.0,
          0.0,
          0.0,
          0.0,
          0.0,
          0.0,
          0.0,
          0.0,
          0.0,
          0.0,
          0.0,
          0.0,
          0.0,
          0.0,
          0.0,
          0.0,
          0.0,
          0.0,
          0.0,
          0.0,
          0.0,
          0.0,
          0.0,
          0.0,
          0.0,
          0.0,
          0.0,
          0.0,
          0.0,
          0.0,
          0.0,
          0.0,
          0.0,
          0.0,
          0.0,
          0.0,
          0.0,
          0.0,
          0.0,
          0.0,
          0.0,
          0.0,
          0.0,
          0.0,
          0.0,
          0.0,
          0.0,
          0.0,
          0.0,
          0.0,
          0.0,
          0.0,
          0.0,
          0.0,
          0.0,
          0.0,
          0.0,
          0.0,
          0.0,
          0.0,
          0.0,
          0.0,
          0.0,
          0.0,
          0.0,
          0.0,
          0.0,
          0.0,
          0.0,
          0.0,
          0.0,
          0.0,
          0.0,
          0.0,
          0.0,
          0.0,
          0.0,
          0.0,
          0.0,
          0.0,
          0.0,
          0.0,
          0.0,
          0.0,
          0.0,
          0.0,
          0.0,
          0.0,
          0.0,
          0.0,
          0.0,
          0.0,
          0.0,
          0.0,
          0.0,
          0.0,
          0.0,
          0.0,
          0.0,
          0.0,
          0.0,
          0.0,
          0.0,
          0.0,
          0.0,
          0.0,
          0.0,
          0.0,
          0.0,
          0.0,
          0.0,
          0.0,
          0.0,
          0.0,
          0.0,
          0.0,
          0.0,
          0.0,
          0.0,
          0.0,
          0.0,
          0.0,
          0.0,
          0.0,
          0.0,
          0.0,
          0.0,
          0.0,
          0.0,
          0.0,
          0.0,
          0.0,
          0.0,
          0.0,
          0.0,
          0.0,
          0.0,
          0.0,
          0.0,
          0.0,
          0.0,
          0.0,
          0.0,
          0.0,
          0.0,
          0.0,
          0.0,
          0.0,
          0.0,
          0.0,
          0.0,
          0.0,
          0.0,
          0.0,
          0.0,
          0.0,
          0.0,
          0.0,
          0.0,
          0.0,
          0.0,
          0.0,
          0.0,
          0.0,
          0.0,
          0.0,
          0.0,
          0.0,
          0.0,
          0.0,
          0.0,
          0.0,
          0.0,
          0.0,
          0.0,
          0.0,
          0.0,
          0.0,
          0.0,
          0.0,
          0.0,
          0.0,
          0.0,
          0.0,
          0.0,
          0.0,
          0.0,
          0.0,
          0.0,
          0.0,
          0.0,
          0.0,
          0.0,
          0.0,
          0.0,
          0.0,
          0.0,
          0.0,
          0.0,
          0.0,
          0.0,
          0.0,
          0.0,
          0.0,
          0.0,
          0.0,
          0.0,
          0.0,
          0.0,
          0.0,
          0.0,
          0.0,
          0.0,
          0.0,
          0.0,
          0.0,
          0.0,
          0.0,
          0.0,
          0.0,
          0.0,
          0.0,
          0.0
        ],
        "attributes": [
          1,
          1,
          1,
          1,
          1,
          1,
          1,
          5,
          1,
          1,
          1,
          5,
          1,
          1,
          1,
          1,
          1,
          1,
          1,
          1,
          1,
          1,
          1,
          1,
          1,
          1,
          1,
          1,
          1,
          1,
          1,
          1,
          1,
          1,
          1,
          1,
          1,
          1,
          1,
          1,
          1,
          1,
          1,
          1,
          1,
          1,
          1,
          1,
          1,
          1,
          1,
          1,
          1,
          1,
          1,
          1,
          1,
          1,
          1,
          1,
          1,
          1,
          1,
          1,
          1,
          1,
          1,
          1,
          1,
          1,
          1,
          1,
          1,
          1,
          1,
          1,
          1,
          1,
          1,
          1,
          1,
          1,
          1,
          1,
          1,
          1,
          1,
          1,
          1,
          1,
          1,
          1,
          1,
          1,
          1,
          1,
          1,
          1,
          1,
          1,
          1,
          1,
          1,
          1,
          1,
          1,
          1,
          1,
          1,
          1,
          1,
          1,
          1,
          1,
          1,
          1,
          1,
          1,
          1,
          1,
          1,
          1,
          1,
          1,
          1,
          1,
          1,
          1,
          1,
          1,
          1,
          1,
          1,
          1,
          1,
          1,
          1,
          1,
          1,
          1,
          1,
          1,
          1,
          1,
          1,
          1,
          1,
          1,
          1,
          1,
          1,
          1,
          1,
          1,
          1,
          1,
          1,
          1,
          1,
          1,
          1,
          1,
          1,
          1,
          1,
          1,
          1,
          1,
          1,
          1,
          1,
          1,
          1,
          1,
          1,
          1,
          1,
          1,
          1,
          1,
          1,
          1,
          1,
          1,
          1,
          1,
          1,
          1,
          1,
          1,
          1,
          1,
          1,
          1,
          1,
          1,
          1,
          1,
          1,
          1,
          1,
          1,
          1,
          1,
          1,
          1,
          1,
          1,
          1,
          1,
          1,
          1,
          1,
          1,
          1,
          1,
          1,
          1,
          1,
          1,
          1,
          1,
          1,
          1,
          1,
          1,
          1,
          1,
          1,
          1,
          1,
          1,
          1,
          1,
          1,
          1,
          1,
          1,
          1,
          1,
          1,
          1,
          1,
          1,
          1,
          1,
          1,
          1,
          1,
          1,
          1,
          1,
          1,
          1,
          1,
          1
        ],
        "resetOnRun": false,
        "attached": false,
        "stopAtEndOfSong": false
      },
      "pos": [
        52,
        1
      ]
    },
    {
      "id": 112,
      "plugin": "Fundamental",
      "version": "1.4.0",
      "model": "VCO2",
      "params": [
        {
          "id": 0,
          "value": 1.0
        },
        {
          "id": 1,
          "value": 1.0
        },
        {
          "id": 2,
          "value": -54.0
        },
        {
          "id": 3,
          "value": 1.5
        },
        {
          "id": 4,
          "value": 0.0
        }
      ],
      "leftModuleId": 105,
      "rightModuleId": 108,
      "pos": [
        38,
        1
      ]
    },
    {
      "id": 113,
      "plugin": "Fundamental",
      "version": "1.4.0",
      "model": "VCO",
      "params": [
        {
          "id": 0,
          "value": 1.0
        },
        {
          "id": 1,
          "value": 1.0
        },
        {
          "id": 2,
          "value": -31.5360012
        },
        {
          "id": 3,
          "value": 0.0
        },
        {
          "id": 4,
          "value": 0.0
        },
        {
          "id": 5,
          "value": 0.5
        },
        {
          "id": 6,
          "value": 0.0
        }
      ],
      "rightModuleId": 110,
      "pos": [
        19,
        1
      ]
    },
    {
      "id": 119,
      "plugin": "Fundamental",
      "version": "1.4.0",
      "model": "LFO",
      "params": [
        {
          "id": 0,
          "value": 1.0
        },
        {
          "id": 1,
          "value": 1.0
        },
        {
          "id": 2,
          "value": 2.08899856
        },
        {
          "id": 3,
          "value": 0.0
        },
        {
          "id": 4,
          "value": 0.0
        },
        {
          "id": 5,
          "value": 0.5
        },
        {
          "id": 6,
          "value": 0.0
        }
      ],
      "leftModuleId": 120,
      "rightModuleId": 133,
      "pos": [
        33,
        0
      ]
    },
    {
      "id": 120,
      "plugin": "VultModulesFree",
      "version": "1.6.0",
      "model": "Tohe",
      "params": [
        {
          "id": 0,
          "value": 1.0
        },
        {
          "id": 1,
          "value": 0.0310000014
        },
        {
          "id": 2,
          "value": 1.0
        }
      ],
      "leftModuleId": 122,
      "rightModuleId": 119,
      "pos": [
        29,
        0
      ]
    },
    {
      "id": 121,
      "plugin": "Fundamental",
      "version": "1.4.0",
      "model": "VCMixer",
      "params": [
        {
          "id": 0,
          "value": 1.05300033
        },
        {
          "id": 1,
          "value": 1.41421354
        },
        {
          "id": 2,
          "value": 1.41421354
        },
        {
          "id": 3,
          "value": 1.41421354
        },
        {
          "id": 4,
          "value": 1.41421354
        }
      ],
      "leftModuleId": 111,
      "pos": [
        82,
        1
      ]
    },
    {
      "id": 122,
      "plugin": "Fundamental",
      "version": "1.4.0",
      "model": "VCO",
      "params": [
        {
          "id": 0,
          "value": 1.0
        },
        {
          "id": 1,
          "value": 0.0
        },
        {
          "id": 2,
          "value": 0.701998651
        },
        {
          "id": 3,
          "value": 0.0
        },
        {
          "id": 4,
          "value": 0.0
        },
        {
          "id": 5,
          "value": 0.5
        },
        {
          "id": 6,
          "value": 0.0
        }
      ],
      "rightModuleId": 120,
      "pos": [
        19,
        0
      ]
    },
    {
      "id": 125,
      "plugin": "cf",
      "version": "1.1.1",
      "model": "PEAK",
      "params": [
        {
          "id": 0,
          "value": 4.92000008
        },
        {
          "id": 1,
          "value": 0.0
        }
      ],
      "leftModuleId": 98,
      "rightModuleId": 128,
      "pos": [
        81,
        0
      ]
    },
    {
      "id": 128,
      "plugin": "cf",
      "version": "1.1.1",
      "model": "PEAK",
      "params": [
        {
          "id": 0,
          "value": 4.92000008
        },
        {
          "id": 1,
          "value": 0.0
        }
      ],
      "leftModuleId": 125,
      "rightModuleId": 129,
      "pos": [
        87,
        0
      ]
    },
    {
      "id": 129,
      "plugin": "cf",
      "version": "1.1.1",
      "model": "PEAK",
      "params": [
        {
          "id": 0,
          "value": 4.92000008
        },
        {
          "id": 1,
          "value": 0.0
        }
      ],
      "leftModuleId": 128,
      "pos": [
        93,
        0
      ]
    },
    {
      "id": 130,
      "plugin": "cf",
      "version": "1.1.1",
      "model": "PEAK",
      "params": [
        {
          "id": 0,
          "value": 4.92000008
        },
        {
          "id": 1,
          "value": 0.0
        }
      ],
      "rightModuleId": 135,
      "pos": [
        104,
        0
      ]
    },
    {
      "id": 133,
      "plugin": "Fundamental",
      "version": "1.4.0",
      "model": "Delay",
      "params": [
        {
          "id": 0,
          "value": 0.608500004
        },
        {
          "id": 1,
          "value": 0.505499482
        },
        {
          "id": 2,
          "value": 0.498999983
        },
        {
          "id": 3,
          "value": 0.211000174
        }
      ],
      "leftModuleId": 119,
      "rightModuleId": 134,
      "pos": [
        43,
        0
      ]
    },
    {
      "id": 134,
      "plugin": "Befaco",
      "version": "1.0.0",
      "model": "SpringReverb",
      "params": [
        {
          "id": 0,
          "value": 1.0
        },
        {
          "id": 1,
          "value": 0.633999825
        },
        {
          "id": 2,
          "value": 0.657999992
        },
        {
          "id": 3,
          "value": 0.479500055
        }
      ],
      "leftModuleId": 133,
      "pos": [
        51,
        0
      ]
    },
    {
      "id": 135,
      "plugin": "cf",
      "version": "1.1.1",
      "model": "PEAK",
      "params": [
        {
          "id": 0,
          "value": 4.92000008
        },
        {
          "id": 1,
          "value": 0.0
        }
      ],
      "leftModuleId": 130,
      "pos": [
        110,
        0
      ]
    }
  ],
  "cables": [
    {
      "id": 541,
      "outputModuleId": 77,
      "outputId": 4,
      "inputModuleId": 85,
      "inputId": 1,
      "color": "#c9b70e"
    },
    {
      "id": 542,
      "outputModuleId": 76,
      "outputId": 1,
      "inputModuleId": 85,
      "inputId": 0,
      "color": "#0c8e15"
    },
    {
      "id": 547,
      "outputModuleId": 84,
      "outputId": 1,
      "inputModuleId": 83,
      "inputId": 5,
      "color": "#c91847"
    },
    {
      "id": 543,
      "outputModuleId": 76,
      "outputId": 1,
      "inputModuleId": 83,
      "inputId": 0,
      "color": "#c91847"
    },
    {
      "id": 546,
      "outputModuleId": 82,
      "outputId": 3,
      "inputModuleId": 84,
      "inputId": 0,
      "color": "#0c8e15"
    },
    {
      "id": 600,
      "outputModuleId": 83,
      "outputId": 0,
      "inputModuleId": 95,
      "inputId": 0,
      "color": "#c9b70e"
    },
    {
      "id": 687,
      "outputModuleId": 76,
      "outputId": 4,
      "inputModuleId": 77,
      "inputId": 4,
      "color": "#0c8e15"
    },
    {
      "id": 688,
      "outputModuleId": 76,
      "outputId": 5,
      "inputModuleId": 77,
      "inputId": 5,
      "color": "#c91847"
    },
    {
      "id": 689,
      "outputModuleId": 76,
      "outputId": 6,
      "inputModuleId": 77,
      "inputId": 6,
      "color": "#0986ad"
    },
    {
      "id": 722,
      "outputModuleId": 97,
      "outputId": 0,
      "inputModuleId": 1,
      "inputId": 0,
      "color": "#c9b70e"
    },
    {
      "id": 726,
      "outputModuleId": 77,
      "outputId": 4,
      "inputModuleId": 111,
      "inputId": 2,
      "color": "#c91847"
    },
    {
      "id": 729,
      "outputModuleId": 76,
      "outputId": 2,
      "inputModuleId": 111,
      "inputId": 3,
      "color": "#c91847"
    },
    {
      "id": 734,
      "outputModuleId": 112,
      "outputId": 0,
      "inputModuleId": 108,
      "inputId": 4,
      "color": "#c91847"
    },
    {
      "id": 724,
      "outputModuleId": 83,
      "outputId": 0,
      "inputModuleId": 100,
      "inputId": 6,
      "color": "#c91847"
    },
    {
      "id": 545,
      "outputModuleId": 85,
      "outputId": 14,
      "inputModuleId": 100,
      "inputId": 7,
      "color": "#c9b70e"
    },
    {
      "id": 634,
      "outputModuleId": 100,
      "outputId": 0,
      "inputModuleId": 82,
      "inputId": 1,
      "color": "#c91847"
    },
    {
      "id": 737,
      "outputModuleId": 95,
      "outputId": 0,
      "inputModuleId": 80,
      "inputId": 0,
      "color": "#c91847"
    },
    {
      "id": 738,
      "outputModuleId": 95,
      "outputId": 1,
      "inputModuleId": 80,
      "inputId": 1,
      "color": "#0986ad"
    },
    {
      "id": 727,
      "outputModuleId": 111,
      "outputId": 0,
      "inputModuleId": 113,
      "inputId": 0,
      "color": "#c9b70e"
    },
    {
      "id": 548,
      "outputModuleId": 83,
      "outputId": 1,
      "inputModuleId": 84,
      "inputId": 1,
      "color": "#0986ad"
    },
    {
      "id": 744,
      "outputModuleId": 121,
      "outputId": 0,
      "inputModuleId": 1,
      "inputId": 1,
      "color": "#0c8e15"
    },
    {
      "id": 694,
      "outputModuleId": 113,
      "outputId": 0,
      "inputModuleId": 110,
      "inputId": 5,
      "color": "#0c8e15"
    },
    {
      "id": 730,
      "outputModuleId": 108,
      "outputId": 0,
      "inputModuleId": 110,
      "inputId": 4,
      "color": "#0c8e15"
    },
    {
      "id": 698,
      "outputModuleId": 110,
      "outputId": 1,
      "inputModuleId": 105,
      "inputId": 2,
      "color": "#c9b70e"
    },
    {
      "id": 752,
      "outputModuleId": 100,
      "outputId": 0,
      "inputModuleId": 98,
      "inputId": 2,
      "color": "#c91847"
    },
    {
      "id": 651,
      "outputModuleId": 80,
      "outputId": 1,
      "inputModuleId": 79,
      "inputId": 4,
      "color": "#c9b70e"
    },
    {
      "id": 757,
      "outputModuleId": 80,
      "outputId": 0,
      "inputModuleId": 78,
      "inputId": 4,
      "color": "#0986ad"
    },
    {
      "id": 758,
      "outputModuleId": 78,
      "outputId": 0,
      "inputModuleId": 128,
      "inputId": 1,
      "color": "#c9b70e"
    },
    {
      "id": 759,
      "outputModuleId": 79,
      "outputId": 0,
      "inputModuleId": 128,
      "inputId": 2,
      "color": "#0c8e15"
    },
    {
      "id": 763,
      "outputModuleId": 122,
      "outputId": 0,
      "inputModuleId": 110,
      "inputId": 2,
      "color": "#0c8e15"
    },
    {
      "id": 766,
      "outputModuleId": 110,
      "outputId": 0,
      "inputModuleId": 120,
      "inputId": 0,
      "color": "#c9b70e"
    },
    {
      "id": 774,
      "outputModuleId": 130,
      "outputId": 0,
      "inputModuleId": 84,
      "inputId": 3,
      "color": "#c91847"
    },
    {
      "id": 775,
      "outputModuleId": 130,
      "outputId": 1,
      "inputModuleId": 84,
      "inputId": 2,
      "color": "#0986ad"
    },
    {
      "id": 753,
      "outputModuleId": 125,
      "outputId": 0,
      "inputModuleId": 121,
      "inputId": 3,
      "color": "#0986ad"
    },
    {
      "id": 771,
      "outputModuleId": 129,
      "outputId": 0,
      "inputModuleId": 121,
      "inputId": 4,
      "color": "#0c8e15"
    },
    {
      "id": 754,
      "outputModuleId": 125,
      "outputId": 1,
      "inputModuleId": 97,
      "inputId": 3,
      "color": "#c9b70e"
    },
    {
      "id": 772,
      "outputModuleId": 129,
      "outputId": 1,
      "inputModuleId": 97,
      "inputId": 4,
      "color": "#c91847"
    },
    {
      "id": 798,
      "outputModuleId": 111,
      "outputId": 0,
      "inputModuleId": 122,
      "inputId": 0,
      "color": "#0c8e15"
    },
    {
      "id": 769,
      "outputModuleId": 120,
      "outputId": 0,
      "inputModuleId": 133,
      "inputId": 4,
      "color": "#0986ad"
    },
    {
      "id": 768,
      "outputModuleId": 119,
      "outputId": 3,
      "inputModuleId": 108,
      "inputId": 0,
      "color": "#c91847"
    },
    {
      "id": 801,
      "outputModuleId": 119,
      "outputId": 2,
      "inputModuleId": 133,
      "inputId": 1,
      "color": "#c9b70e"
    },
    {
      "id": 802,
      "outputModuleId": 119,
      "outputId": 1,
      "inputModuleId": 133,
      "inputId": 2,
      "color": "#0c8e15"
    },
    {
      "id": 800,
      "outputModuleId": 133,
      "outputId": 0,
      "inputModuleId": 134,
      "inputId": 2,
      "color": "#0986ad"
    },
    {
      "id": 803,
      "outputModuleId": 134,
      "outputId": 0,
      "inputModuleId": 129,
      "inputId": 1,
      "color": "#c91847"
    },
    {
      "id": 804,
      "outputModuleId": 133,
      "outputId": 0,
      "inputModuleId": 134,
      "inputId": 3,
      "color": "#0986ad"
    },
    {
      "id": 805,
      "outputModuleId": 105,
      "outputId": 1,
      "inputModuleId": 125,
      "inputId": 2,
      "color": "#c9b70e"
    },
    {
      "id": 806,
      "outputModuleId": 105,
      "outputId": 0,
      "inputModuleId": 125,
      "inputId": 1,
      "color": "#0c8e15"
    },
    {
      "id": 807,
      "outputModuleId": 100,
      "outputId": 1,
      "inputModuleId": 98,
      "inputId": 1,
      "color": "#c91847"
    },
    {
      "id": 809,
      "outputModuleId": 135,
      "outputId": 0,
      "inputModuleId": 100,
      "inputId": 1,
      "color": "#0c8e15"
    },
    {
      "id": 810,
      "outputModuleId": 135,
      "outputId": 1,
      "inputModuleId": 100,
      "inputId": 3,
      "color": "#c91847"
    },
    {
      "id": 755,
      "outputModuleId": 128,
      "outputId": 0,
      "inputModuleId": 121,
      "inputId": 2,
      "color": "#0c8e15"
    },
    {
      "id": 756,
      "outputModuleId": 128,
      "outputId": 1,
      "inputModuleId": 97,
      "inputId": 2,
      "color": "#c91847"
    },
    {
      "id": 743,
      "outputModuleId": 98,
      "outputId": 1,
      "inputModuleId": 97,
      "inputId": 1,
      "color": "#c9b70e"
    },
    {
      "id": 747,
      "outputModuleId": 98,
      "outputId": 0,
      "inputModuleId": 121,
      "inputId": 1,
      "color": "#0c8e15"
    },
    {
      "id": 811,
      "outputModuleId": 111,
      "outputId": 0,
      "inputModuleId": 95,
      "inputId": 6,
      "color": "#0986ad"
    },
    {
      "id": 812,
      "outputModuleId": 76,
      "outputId": 2,
      "inputModuleId": 95,
      "inputId": 2,
      "color": "#c9b70e"
    },
    {
      "id": 813,
      "outputModuleId": 121,
      "outputId": 0,
      "inputModuleId": 30,
      "inputId": 1,
      "color": "#0c8e15"
    },
    {
      "id": 814,
      "outputModuleId": 97,
      "outputId": 0,
      "inputModuleId": 30,
      "inputId": 0,
      "color": "#c91847"
    },
    {
      "id": 815,
      "outputModuleId": 121,
      "outputId": 0,
      "inputModuleId": 67,
      "inputId": 3,
      "color": "#0986ad"
    },
    {
      "id": 816,
      "outputModuleId": 97,
      "outputId": 0,
      "inputModuleId": 67,
      "inputId": 2,
      "color": "#c9b70e"
    }
  ]
}